STARTFONT 2.1
FONT -Adobe-Utopia-Regular-R-Normal--19-180-75-75-P-101-ISO10646-1
SIZE 18 75 75
FONTBOUNDINGBOX 24 26 -3 -7
COMMENT $Xorg: $
COMMENT ISO10646-1 extension by Markus Kuhn <mkuhn@acm.org>, 2001-03-20
STARTPROPERTIES 28
FOUNDRY "Adobe"
FAMILY_NAME "Utopia"
WEIGHT_NAME "Regular"
SLANT "R"
SETWIDTH_NAME "Normal"
ADD_STYLE_NAME ""
PIXEL_SIZE 19
POINT_SIZE 180
RESOLUTION_X 75
RESOLUTION_Y 75
SPACING "P"
AVERAGE_WIDTH 101
CHARSET_REGISTRY "ISO10646"
CHARSET_ENCODING "1"
CAP_HEIGHT 13
X_HEIGHT 9
RELATIVE_SETWIDTH 50
RELATIVE_WEIGHT 50
WEIGHT 136
FACE_NAME "Utopia Regular"
COPYRIGHT "Copyright (c) 1989, 1991 Adobe Systems Incorporated.  All rights reserved."
NOTICE "Utopia is a registered trademark of Adobe Systems Incorporated."
DESTINATION 0
FONT_ASCENT 14
FONT_DESCENT 4
DEFAULT_CHAR 0
_ADOBE_PSFONT "Utopia-Regular"
_DEC_DEVICE_FONTNAMES "PS=Utopia-Regular"
ENDPROPERTIES
CHARS 756
STARTCHAR char0
ENCODING 0
SWIDTH 798 0
DWIDTH 15 0
BBX 13 13 1 0
BITMAP
AAA8
0000
8008
0000
8008
0000
8008
0000
8008
0000
8008
0000
AAA8
ENDCHAR
STARTCHAR space
ENCODING 32
SWIDTH 225 0
DWIDTH 4 0
BBX 0 0 0 0
BITMAP
ENDCHAR
STARTCHAR exclam
ENCODING 33
SWIDTH 242 0
DWIDTH 5 0
BBX 2 13 1 0
BITMAP
C0
C0
C0
C0
C0
C0
C0
C0
C0
00
00
C0
C0
ENDCHAR
STARTCHAR quotedbl
ENCODING 34
SWIDTH 458 0
DWIDTH 8 0
BBX 5 5 1 8
BITMAP
D8
D8
D8
90
90
ENDCHAR
STARTCHAR numbersign
ENCODING 35
SWIDTH 530 0
DWIDTH 10 0
BBX 8 12 1 1
BITMAP
12
12
12
7F
24
24
24
24
FE
48
48
48
ENDCHAR
STARTCHAR dollar
ENCODING 36
SWIDTH 530 0
DWIDTH 10 0
BBX 8 15 1 -1
BITMAP
08
3E
6B
C9
C8
E8
78
3C
1E
17
13
93
D6
7C
10
ENDCHAR
STARTCHAR percent
ENCODING 37
SWIDTH 838 0
DWIDTH 16 0
BBX 13 13 2 0
BITMAP
7020
8FC0
8840
8880
8900
8900
7270
0488
0488
0888
1088
1088
2070
ENDCHAR
STARTCHAR ampersand
ENCODING 38
SWIDTH 706 0
DWIDTH 13 0
BBX 12 13 1 0
BITMAP
1C00
2200
6300
6300
3200
3C20
6C30
C630
C320
C1C0
C0C0
61E0
1E30
ENDCHAR
STARTCHAR quotesingle
ENCODING 39
SWIDTH 278 0
DWIDTH 5 0
BBX 2 5 1 8
BITMAP
C0
C0
C0
80
80
ENDCHAR
STARTCHAR parenleft
ENCODING 40
SWIDTH 350 0
DWIDTH 6 0
BBX 3 16 2 -3
BITMAP
20
40
40
80
80
80
80
80
80
80
80
80
80
40
40
20
ENDCHAR
STARTCHAR parenright
ENCODING 41
SWIDTH 350 0
DWIDTH 6 0
BBX 3 16 1 -3
BITMAP
80
40
40
20
20
20
20
20
20
20
20
20
20
40
40
80
ENDCHAR
STARTCHAR asterisk
ENCODING 42
SWIDTH 412 0
DWIDTH 8 0
BBX 7 7 0 6
BITMAP
10
92
54
38
54
92
10
ENDCHAR
STARTCHAR plus
ENCODING 43
SWIDTH 570 0
DWIDTH 11 0
BBX 9 9 1 0
BITMAP
0800
0800
0800
0800
FF80
0800
0800
0800
0800
ENDCHAR
STARTCHAR comma
ENCODING 44
SWIDTH 265 0
DWIDTH 5 0
BBX 3 5 0 -2
BITMAP
40
E0
60
40
80
ENDCHAR
STARTCHAR hyphen
ENCODING 45
SWIDTH 392 0
DWIDTH 7 0
BBX 5 1 1 4
BITMAP
F8
ENDCHAR
STARTCHAR period
ENCODING 46
SWIDTH 265 0
DWIDTH 5 0
BBX 2 2 1 0
BITMAP
C0
C0
ENDCHAR
STARTCHAR slash
ENCODING 47
SWIDTH 460 0
DWIDTH 8 0
BBX 5 13 1 0
BITMAP
08
08
08
10
10
20
20
20
40
40
80
80
80
ENDCHAR
STARTCHAR zero
ENCODING 48
SWIDTH 530 0
DWIDTH 10 0
BBX 8 13 1 0
BITMAP
3C
66
C3
C3
C3
C3
C3
C3
C3
C3
C3
66
3C
ENDCHAR
STARTCHAR one
ENCODING 49
SWIDTH 530 0
DWIDTH 10 0
BBX 6 13 2 0
BITMAP
30
F0
30
30
30
30
30
30
30
30
30
30
FC
ENDCHAR
STARTCHAR two
ENCODING 50
SWIDTH 530 0
DWIDTH 10 0
BBX 8 13 1 0
BITMAP
3C
E6
C3
03
03
03
06
0C
30
60
C1
FF
FF
ENDCHAR
STARTCHAR three
ENCODING 51
SWIDTH 530 0
DWIDTH 10 0
BBX 8 13 1 0
BITMAP
3C
E6
C3
03
06
3C
06
03
03
03
C3
E6
3C
ENDCHAR
STARTCHAR four
ENCODING 52
SWIDTH 530 0
DWIDTH 10 0
BBX 8 13 1 0
BITMAP
0C
0C
18
1A
36
26
66
46
86
FF
06
06
1F
ENDCHAR
STARTCHAR five
ENCODING 53
SWIDTH 530 0
DWIDTH 10 0
BBX 8 13 1 0
BITMAP
FF
FE
80
80
80
FC
86
03
03
03
C3
E6
3C
ENDCHAR
STARTCHAR six
ENCODING 54
SWIDTH 530 0
DWIDTH 10 0
BBX 8 13 1 0
BITMAP
3C
67
C3
C0
C0
DC
E6
C3
C3
C3
C3
66
3C
ENDCHAR
STARTCHAR seven
ENCODING 55
SWIDTH 530 0
DWIDTH 10 0
BBX 8 13 1 0
BITMAP
FF
FF
82
06
04
0C
08
18
18
10
30
30
30
ENDCHAR
STARTCHAR eight
ENCODING 56
SWIDTH 530 0
DWIDTH 10 0
BBX 8 13 1 0
BITMAP
3C
66
C3
C3
C3
66
3C
46
C3
C3
C3
66
3C
ENDCHAR
STARTCHAR nine
ENCODING 57
SWIDTH 530 0
DWIDTH 10 0
BBX 8 13 1 0
BITMAP
3C
66
C3
C3
C3
C3
67
3B
03
03
C3
E6
3C
ENDCHAR
STARTCHAR colon
ENCODING 58
SWIDTH 265 0
DWIDTH 5 0
BBX 2 9 1 0
BITMAP
C0
C0
00
00
00
00
00
C0
C0
ENDCHAR
STARTCHAR semicolon
ENCODING 59
SWIDTH 265 0
DWIDTH 5 0
BBX 3 11 0 -2
BITMAP
60
60
00
00
00
00
40
E0
60
40
80
ENDCHAR
STARTCHAR less
ENCODING 60
SWIDTH 570 0
DWIDTH 11 0
BBX 9 9 1 0
BITMAP
0080
0380
0E00
3800
E000
3800
0E00
0380
0080
ENDCHAR
STARTCHAR equal
ENCODING 61
SWIDTH 570 0
DWIDTH 11 0
BBX 9 5 1 2
BITMAP
FF80
0000
0000
0000
FF80
ENDCHAR
STARTCHAR greater
ENCODING 62
SWIDTH 570 0
DWIDTH 11 0
BBX 9 9 1 0
BITMAP
8000
E000
3800
0E00
0380
0E00
3800
E000
8000
ENDCHAR
STARTCHAR question
ENCODING 63
SWIDTH 389 0
DWIDTH 8 0
BBX 6 13 1 0
BITMAP
78
CC
8C
0C
18
30
60
60
30
00
00
60
60
ENDCHAR
STARTCHAR at
ENCODING 64
SWIDTH 793 0
DWIDTH 16 0
BBX 14 13 1 0
BITMAP
0FC0
3030
6018
43E8
C66C
8C64
98C4
99C4
DAC8
4CF0
6000
3030
0FC0
ENDCHAR
STARTCHAR A
ENCODING 65
SWIDTH 635 0
DWIDTH 12 0
BBX 12 13 0 0
BITMAP
0600
0600
0B00
0B00
0B00
1180
1180
3FC0
20C0
20C0
4060
4060
E0F0
ENDCHAR
STARTCHAR B
ENCODING 66
SWIDTH 646 0
DWIDTH 12 0
BBX 10 13 1 0
BITMAP
FF00
6180
60C0
60C0
60C0
6180
7F00
6180
60C0
60C0
60C0
6180
FF00
ENDCHAR
STARTCHAR C
ENCODING 67
SWIDTH 684 0
DWIDTH 13 0
BBX 11 13 1 0
BITMAP
0FC0
3060
6020
6000
C000
C000
C000
C000
C000
6000
6020
3060
0F80
ENDCHAR
STARTCHAR D
ENCODING 68
SWIDTH 779 0
DWIDTH 15 0
BBX 13 13 1 0
BITMAP
FF80
6060
6030
6030
6018
6018
6018
6018
6018
6030
6030
6060
FF80
ENDCHAR
STARTCHAR E
ENCODING 69
SWIDTH 606 0
DWIDTH 11 0
BBX 10 13 1 0
BITMAP
FF80
6180
6080
6000
6000
6100
7F00
6100
6000
6000
6040
60C0
FFC0
ENDCHAR
STARTCHAR F
ENCODING 70
SWIDTH 580 0
DWIDTH 11 0
BBX 9 13 1 0
BITMAP
FF80
6180
6080
6000
6000
6100
7F00
6100
6000
6000
6000
6000
F000
ENDCHAR
STARTCHAR G
ENCODING 71
SWIDTH 734 0
DWIDTH 14 0
BBX 13 13 1 0
BITMAP
0FC0
3060
6020
C000
C000
C000
C000
C0F8
C030
C030
6030
3070
0FC0
ENDCHAR
STARTCHAR H
ENCODING 72
SWIDTH 798 0
DWIDTH 15 0
BBX 13 13 1 0
BITMAP
F078
6030
6030
6030
6030
6030
7FF0
6030
6030
6030
6030
6030
F078
ENDCHAR
STARTCHAR I
ENCODING 73
SWIDTH 349 0
DWIDTH 6 0
BBX 4 13 1 0
BITMAP
F0
60
60
60
60
60
60
60
60
60
60
60
F0
ENDCHAR
STARTCHAR J
ENCODING 74
SWIDTH 350 0
DWIDTH 6 0
BBX 6 15 -1 -2
BITMAP
3C
18
18
18
18
18
18
18
18
18
18
18
18
30
C0
ENDCHAR
STARTCHAR K
ENCODING 75
SWIDTH 658 0
DWIDTH 12 0
BBX 11 13 1 0
BITMAP
F1E0
6080
6100
6200
6400
6800
7C00
6E00
6600
6300
6380
61C0
F0E0
ENDCHAR
STARTCHAR L
ENCODING 76
SWIDTH 568 0
DWIDTH 11 0
BBX 10 13 1 0
BITMAP
F000
6000
6000
6000
6000
6000
6000
6000
6000
6000
6040
60C0
FFC0
ENDCHAR
STARTCHAR M
ENCODING 77
SWIDTH 944 0
DWIDTH 18 0
BBX 16 13 1 0
BITMAP
E007
6006
700E
700E
5816
5816
4C26
4C26
4646
4646
4386
4386
E10F
ENDCHAR
STARTCHAR N
ENCODING 78
SWIDTH 780 0
DWIDTH 14 0
BBX 12 13 1 0
BITMAP
E070
7020
7020
5820
5C20
4C20
4620
4720
4320
41A0
41E0
40E0
E060
ENDCHAR
STARTCHAR O
ENCODING 79
SWIDTH 762 0
DWIDTH 14 0
BBX 13 13 1 0
BITMAP
0F80
3060
6030
6030
C018
C018
C018
C018
C018
6030
6030
3060
0F80
ENDCHAR
STARTCHAR P
ENCODING 80
SWIDTH 600 0
DWIDTH 12 0
BBX 10 13 1 0
BITMAP
FF00
6180
60C0
60C0
60C0
60C0
6180
7E00
6000
6000
6000
6000
F000
ENDCHAR
STARTCHAR Q
ENCODING 81
SWIDTH 762 0
DWIDTH 14 0
BBX 13 16 1 -3
BITMAP
0F80
3060
6030
6030
C018
C018
C018
C018
C018
6030
6030
3060
0F80
0300
0180
0070
ENDCHAR
STARTCHAR R
ENCODING 82
SWIDTH 644 0
DWIDTH 12 0
BBX 11 13 1 0
BITMAP
FF00
6180
60C0
60C0
60C0
6180
7F00
6300
6180
6180
6180
60C0
F0E0
ENDCHAR
STARTCHAR S
ENCODING 83
SWIDTH 541 0
DWIDTH 10 0
BBX 8 13 1 0
BITMAP
3E
63
C1
C0
E0
78
1E
07
03
03
83
C6
7C
ENDCHAR
STARTCHAR T
ENCODING 84
SWIDTH 621 0
DWIDTH 12 0
BBX 12 13 0 0
BITMAP
FFF0
C630
8610
0600
0600
0600
0600
0600
0600
0600
0600
0600
1F80
ENDCHAR
STARTCHAR U
ENCODING 85
SWIDTH 791 0
DWIDTH 14 0
BBX 12 13 1 0
BITMAP
F0F0
6060
6060
6060
6060
6060
6060
6060
6060
6060
6060
30C0
0F00
ENDCHAR
STARTCHAR V
ENCODING 86
SWIDTH 634 0
DWIDTH 12 0
BBX 12 13 0 0
BITMAP
F070
6020
6020
3040
3040
3040
1880
1880
0D00
0D00
0D00
0600
0600
ENDCHAR
STARTCHAR W
ENCODING 87
SWIDTH 940 0
DWIDTH 18 0
BBX 18 13 0 0
BITMAP
F001C0
604080
604080
30E100
30E100
30E100
193200
193200
193200
0E1C00
0E1C00
0E1C00
040800
ENDCHAR
STARTCHAR X
ENCODING 88
SWIDTH 624 0
DWIDTH 11 0
BBX 11 13 0 0
BITMAP
F0E0
6040
3080
3900
1900
0E00
0E00
0E00
1300
1380
2180
40C0
E1E0
ENDCHAR
STARTCHAR Y
ENCODING 89
SWIDTH 588 0
DWIDTH 12 0
BBX 12 13 0 0
BITMAP
F070
6020
3040
3040
1880
0D00
0D00
0600
0600
0600
0600
0600
0F00
ENDCHAR
STARTCHAR Z
ENCODING 90
SWIDTH 610 0
DWIDTH 12 0
BBX 10 13 1 0
BITMAP
FF80
C180
8300
0600
0600
0C00
1800
1800
3000
6000
6040
C0C0
FFC0
ENDCHAR
STARTCHAR bracketleft
ENCODING 91
SWIDTH 330 0
DWIDTH 6 0
BBX 3 16 2 -3
BITMAP
E0
80
80
80
80
80
80
80
80
80
80
80
80
80
80
E0
ENDCHAR
STARTCHAR backslash
ENCODING 92
SWIDTH 460 0
DWIDTH 8 0
BBX 5 13 1 0
BITMAP
80
80
80
40
40
20
20
20
10
10
08
08
08
ENDCHAR
STARTCHAR bracketright
ENCODING 93
SWIDTH 330 0
DWIDTH 6 0
BBX 3 16 1 -3
BITMAP
E0
20
20
20
20
20
20
20
20
20
20
20
20
20
20
E0
ENDCHAR
STARTCHAR asciicircum
ENCODING 94
SWIDTH 570 0
DWIDTH 11 0
BBX 9 8 1 5
BITMAP
0800
1C00
1400
3600
2200
6300
4100
C180
ENDCHAR
STARTCHAR underscore
ENCODING 95
SWIDTH 500 0
DWIDTH 9 0
BBX 9 1 0 -2
BITMAP
FF80
ENDCHAR
STARTCHAR grave
ENCODING 96
SWIDTH 400 0
DWIDTH 7 0
BBX 3 2 1 10
BITMAP
C0
60
ENDCHAR
STARTCHAR a
ENCODING 97
SWIDTH 523 0
DWIDTH 10 0
BBX 8 9 1 0
BITMAP
7C
C6
06
0E
36
C6
C6
CE
77
ENDCHAR
STARTCHAR b
ENCODING 98
SWIDTH 598 0
DWIDTH 11 0
BBX 10 14 0 0
BITMAP
E000
6000
6000
6000
6000
6F00
7180
60C0
60C0
60C0
60C0
60C0
7180
4F00
ENDCHAR
STARTCHAR c
ENCODING 99
SWIDTH 496 0
DWIDTH 9 0
BBX 8 9 1 0
BITMAP
3C
66
C0
C0
C0
C0
C1
62
3C
ENDCHAR
STARTCHAR d
ENCODING 100
SWIDTH 598 0
DWIDTH 12 0
BBX 10 14 1 0
BITMAP
0380
0180
0180
0180
0180
3D80
6380
C180
C180
C180
C180
C180
6380
3DC0
ENDCHAR
STARTCHAR e
ENCODING 101
SWIDTH 514 0
DWIDTH 10 0
BBX 8 9 1 0
BITMAP
3C
66
C3
FF
C0
C0
C1
62
3C
ENDCHAR
STARTCHAR f
ENCODING 102
SWIDTH 319 0
DWIDTH 6 0
BBX 6 14 1 0
BITMAP
1C
24
60
60
60
F8
60
60
60
60
60
60
60
F0
ENDCHAR
STARTCHAR g
ENCODING 103
SWIDTH 520 0
DWIDTH 10 0
BBX 10 13 0 -4
BITMAP
1FC0
3300
6180
6180
3300
1E00
3000
3E00
6780
C0C0
C0C0
6180
3F00
ENDCHAR
STARTCHAR h
ENCODING 104
SWIDTH 607 0
DWIDTH 12 0
BBX 10 14 1 0
BITMAP
E000
6000
6000
6000
6000
6F00
7380
6180
6180
6180
6180
6180
6180
F3C0
ENDCHAR
STARTCHAR i
ENCODING 105
SWIDTH 291 0
DWIDTH 6 0
BBX 4 12 1 0
BITMAP
60
60
00
E0
60
60
60
60
60
60
60
F0
ENDCHAR
STARTCHAR j
ENCODING 106
SWIDTH 280 0
DWIDTH 6 0
BBX 5 16 -1 -4
BITMAP
18
18
00
38
18
18
18
18
18
18
18
18
18
18
30
C0
ENDCHAR
STARTCHAR k
ENCODING 107
SWIDTH 524 0
DWIDTH 10 0
BBX 10 14 0 0
BITMAP
E000
6000
6000
6000
6000
6180
6300
6400
7800
6C00
6600
6300
6180
F0C0
ENDCHAR
STARTCHAR l
ENCODING 108
SWIDTH 279 0
DWIDTH 6 0
BBX 4 14 1 0
BITMAP
E0
60
60
60
60
60
60
60
60
60
60
60
60
F0
ENDCHAR
STARTCHAR m
ENCODING 109
SWIDTH 923 0
DWIDTH 18 0
BBX 16 9 1 0
BITMAP
EF3C
73CE
6186
6186
6186
6186
6186
6186
F3CF
ENDCHAR
STARTCHAR n
ENCODING 110
SWIDTH 619 0
DWIDTH 12 0
BBX 10 9 1 0
BITMAP
EF00
7380
6180
6180
6180
6180
6180
6180
F3C0
ENDCHAR
STARTCHAR o
ENCODING 111
SWIDTH 577 0
DWIDTH 11 0
BBX 9 9 1 0
BITMAP
3E00
6300
C180
C180
C180
C180
C180
6300
3E00
ENDCHAR
STARTCHAR p
ENCODING 112
SWIDTH 608 0
DWIDTH 12 0
BBX 10 13 1 -4
BITMAP
EF00
7180
60C0
60C0
60C0
60C0
60C0
7180
6F00
6000
6000
6000
F000
ENDCHAR
STARTCHAR q
ENCODING 113
SWIDTH 591 0
DWIDTH 11 0
BBX 10 14 1 -4
BITMAP
0080
3D80
6380
C180
C180
C180
C180
C180
6380
3D80
0180
0180
0180
03C0
ENDCHAR
STARTCHAR r
ENCODING 114
SWIDTH 389 0
DWIDTH 7 0
BBX 6 9 1 0
BITMAP
EC
74
60
60
60
60
60
60
F0
ENDCHAR
STARTCHAR s
ENCODING 115
SWIDTH 436 0
DWIDTH 8 0
BBX 6 9 1 0
BITMAP
78
CC
80
E0
78
1C
04
CC
78
ENDCHAR
STARTCHAR t
ENCODING 116
SWIDTH 344 0
DWIDTH 6 0
BBX 5 11 1 0
BITMAP
20
60
F8
60
60
60
60
60
60
60
38
ENDCHAR
STARTCHAR u
ENCODING 117
SWIDTH 606 0
DWIDTH 11 0
BBX 10 9 0 0
BITMAP
E380
6180
6180
6180
6180
6180
6180
7380
3DC0
ENDCHAR
STARTCHAR v
ENCODING 118
SWIDTH 504 0
DWIDTH 9 0
BBX 9 9 0 0
BITMAP
F380
6100
6100
3200
3200
3200
1C00
1C00
0800
ENDCHAR
STARTCHAR w
ENCODING 119
SWIDTH 768 0
DWIDTH 14 0
BBX 14 9 0 0
BITMAP
F11C
6108
6388
3390
3390
34D0
1CE0
1CE0
0840
ENDCHAR
STARTCHAR x
ENCODING 120
SWIDTH 486 0
DWIDTH 9 0
BBX 9 9 0 0
BITMAP
F380
6100
3200
3400
1C00
1600
2600
4300
E780
ENDCHAR
STARTCHAR y
ENCODING 121
SWIDTH 506 0
DWIDTH 9 0
BBX 9 13 0 -4
BITMAP
F380
6100
6100
3200
3200
3200
1C00
1C00
0800
0800
1000
F000
6000
ENDCHAR
STARTCHAR z
ENCODING 122
SWIDTH 480 0
DWIDTH 9 0
BBX 7 9 1 0
BITMAP
FE
86
0C
18
10
30
60
C2
FE
ENDCHAR
STARTCHAR braceleft
ENCODING 123
SWIDTH 340 0
DWIDTH 6 0
BBX 4 16 1 -3
BITMAP
30
40
40
40
40
40
40
80
40
40
40
40
40
40
40
30
ENDCHAR
STARTCHAR bar
ENCODING 124
SWIDTH 228 0
DWIDTH 4 0
BBX 1 13 1 0
BITMAP
80
80
80
80
80
80
80
80
80
80
80
80
80
ENDCHAR
STARTCHAR braceright
ENCODING 125
SWIDTH 340 0
DWIDTH 6 0
BBX 4 16 1 -3
BITMAP
C0
20
20
20
20
20
20
10
20
20
20
20
20
20
20
C0
ENDCHAR
STARTCHAR asciitilde
ENCODING 126
SWIDTH 570 0
DWIDTH 11 0
BBX 9 2 1 4
BITMAP
7880
8F00
ENDCHAR
STARTCHAR space
ENCODING 160
SWIDTH 225 0
DWIDTH 4 0
BBX 0 0 0 0
BITMAP
ENDCHAR
STARTCHAR exclamdown
ENCODING 161
SWIDTH 242 0
DWIDTH 5 0
BBX 2 13 2 -4
BITMAP
C0
C0
00
00
C0
C0
C0
C0
C0
C0
C0
C0
C0
ENDCHAR
STARTCHAR cent
ENCODING 162
SWIDTH 530 0
DWIDTH 10 0
BBX 8 13 1 0
BITMAP
08
08
3E
6B
C9
C8
C8
C8
C8
69
3E
08
08
ENDCHAR
STARTCHAR sterling
ENCODING 163
SWIDTH 530 0
DWIDTH 10 0
BBX 8 13 1 0
BITMAP
3C
66
C2
C0
C0
60
FC
30
30
30
21
7F
FF
ENDCHAR
STARTCHAR currency
ENCODING 164
SWIDTH 530 0
DWIDTH 10 0
BBX 9 8 0 3
BITMAP
BE80
6300
C180
C180
C180
C180
6300
BE80
ENDCHAR
STARTCHAR yen
ENCODING 165
SWIDTH 530 0
DWIDTH 10 0
BBX 10 13 0 0
BITMAP
F1C0
6080
3100
3100
1A00
1A00
7F80
0C00
7F80
0C00
0C00
0C00
3F00
ENDCHAR
STARTCHAR brokenbar
ENCODING 166
SWIDTH 228 0
DWIDTH 4 0
BBX 1 13 2 0
BITMAP
80
80
80
80
80
00
00
00
80
80
80
80
80
ENDCHAR
STARTCHAR section
ENCODING 167
SWIDTH 554 0
DWIDTH 10 0
BBX 8 15 1 -2
BITMAP
3C
66
40
60
B8
8E
83
C1
71
1D
06
02
02
66
3C
ENDCHAR
STARTCHAR dieresis
ENCODING 168
SWIDTH 400 0
DWIDTH 7 0
BBX 5 2 1 10
BITMAP
D8
D8
ENDCHAR
STARTCHAR copyright
ENCODING 169
SWIDTH 818 0
DWIDTH 15 0
BBX 13 13 1 0
BITMAP
0F80
3060
4010
4F90
9888
9008
9008
9008
9888
4F10
4010
3060
0F80
ENDCHAR
STARTCHAR ordfeminine
ENCODING 170
SWIDTH 390 0
DWIDTH 7 0
BBX 6 6 0 6
BITMAP
70
88
38
C8
98
6C
ENDCHAR
STARTCHAR guillemotleft
ENCODING 171
SWIDTH 442 0
DWIDTH 8 0
BBX 7 7 0 1
BITMAP
12
24
6C
D8
6C
24
12
ENDCHAR
STARTCHAR logicalnot
ENCODING 172
SWIDTH 570 0
DWIDTH 11 0
BBX 9 5 1 2
BITMAP
FF80
0080
0080
0080
0080
ENDCHAR
STARTCHAR hyphen
ENCODING 173
SWIDTH 392 0
DWIDTH 7 0
BBX 5 1 1 4
BITMAP
F8
ENDCHAR
STARTCHAR registered
ENCODING 174
SWIDTH 818 0
DWIDTH 15 0
BBX 13 13 1 0
BITMAP
0F80
3060
4010
5F10
8888
8888
8B08
8908
8888
5CD0
4010
3060
0F80
ENDCHAR
STARTCHAR macron
ENCODING 175
SWIDTH 400 0
DWIDTH 7 0
BBX 5 1 1 10
BITMAP
F8
ENDCHAR
STARTCHAR degree
ENCODING 176
SWIDTH 350 0
DWIDTH 6 0
BBX 5 5 0 8
BITMAP
70
88
88
88
70
ENDCHAR
STARTCHAR plusminus
ENCODING 177
SWIDTH 570 0
DWIDTH 11 0
BBX 9 11 1 0
BITMAP
0800
0800
0800
0800
FF80
0800
0800
0800
0800
0000
FF80
ENDCHAR
STARTCHAR twosuperior
ENCODING 178
SWIDTH 380 0
DWIDTH 7 0
BBX 5 8 1 5
BITMAP
70
88
08
10
20
40
88
F8
ENDCHAR
STARTCHAR threesuperior
ENCODING 179
SWIDTH 380 0
DWIDTH 7 0
BBX 5 8 1 5
BITMAP
70
88
08
70
08
08
88
70
ENDCHAR
STARTCHAR acute
ENCODING 180
SWIDTH 400 0
DWIDTH 7 0
BBX 3 2 1 10
BITMAP
60
C0
ENDCHAR
STARTCHAR mu
ENCODING 181
SWIDTH 606 0
DWIDTH 11 0
BBX 10 13 0 -4
BITMAP
E380
6180
6180
6180
6180
6180
6180
7380
7DC0
4000
4000
6000
6000
ENDCHAR
STARTCHAR paragraph
ENCODING 182
SWIDTH 555 0
DWIDTH 10 0
BBX 9 15 1 -2
BITMAP
3380
7200
F200
F200
F200
F200
7200
3200
0200
0200
0200
0200
0200
0200
0E00
ENDCHAR
STARTCHAR periodcentered
ENCODING 183
SWIDTH 265 0
DWIDTH 5 0
BBX 2 2 1 4
BITMAP
C0
C0
ENDCHAR
STARTCHAR cedilla
ENCODING 184
SWIDTH 400 0
DWIDTH 7 0
BBX 3 4 2 -4
BITMAP
40
60
20
C0
ENDCHAR
STARTCHAR onesuperior
ENCODING 185
SWIDTH 380 0
DWIDTH 7 0
BBX 5 8 1 5
BITMAP
20
E0
20
20
20
20
20
F8
ENDCHAR
STARTCHAR ordmasculine
ENCODING 186
SWIDTH 398 0
DWIDTH 7 0
BBX 6 6 0 6
BITMAP
78
CC
84
84
CC
78
ENDCHAR
STARTCHAR guillemotright
ENCODING 187
SWIDTH 442 0
DWIDTH 8 0
BBX 7 7 0 1
BITMAP
90
48
6C
36
6C
48
90
ENDCHAR
STARTCHAR onequarter
ENCODING 188
SWIDTH 860 0
DWIDTH 15 0
BBX 13 13 1 0
BITMAP
2020
E040
2040
2080
2100
2120
2220
FC50
0490
0890
11F8
1010
2038
ENDCHAR
STARTCHAR onehalf
ENCODING 189
SWIDTH 860 0
DWIDTH 15 0
BBX 13 13 1 0
BITMAP
2020
E040
2040
2080
2100
2170
2288
FC08
0410
0820
1040
1088
20F8
ENDCHAR
STARTCHAR threequarters
ENCODING 190
SWIDTH 860 0
DWIDTH 15 0
BBX 13 13 1 0
BITMAP
7020
8840
0840
7080
0900
0920
8A20
7450
0490
0890
11F8
1010
2038
ENDCHAR
STARTCHAR questiondown
ENCODING 191
SWIDTH 389 0
DWIDTH 8 0
BBX 6 13 1 -4
BITMAP
18
18
00
00
30
18
18
30
60
C0
C4
CC
78
ENDCHAR
STARTCHAR Agrave
ENCODING 192
SWIDTH 635 0
DWIDTH 12 0
BBX 12 14 0 0
BITMAP
0C00
0600
0000
0600
0600
0B00
0B00
1180
1180
3FC0
20C0
4060
4060
E0F0
ENDCHAR
STARTCHAR Aacute
ENCODING 193
SWIDTH 635 0
DWIDTH 12 0
BBX 12 14 0 0
BITMAP
0600
0C00
0000
0600
0600
0B00
0B00
1180
1180
3FC0
20C0
4060
4060
E0F0
ENDCHAR
STARTCHAR Acircumflex
ENCODING 194
SWIDTH 635 0
DWIDTH 12 0
BBX 12 14 0 0
BITMAP
0600
0D00
0000
0600
0600
0B00
0B00
1180
1180
3FC0
20C0
4060
4060
E0F0
ENDCHAR
STARTCHAR Atilde
ENCODING 195
SWIDTH 635 0
DWIDTH 12 0
BBX 12 14 0 0
BITMAP
1C80
2700
0000
0600
0600
0B00
0B00
1180
1180
3FC0
20C0
4060
4060
E0F0
ENDCHAR
STARTCHAR Adieresis
ENCODING 196
SWIDTH 635 0
DWIDTH 12 0
BBX 12 14 0 0
BITMAP
1B00
1B00
0000
0600
0600
0B00
0B00
1180
1180
3FC0
20C0
4060
4060
E0F0
ENDCHAR
STARTCHAR Aring
ENCODING 197
SWIDTH 627 0
DWIDTH 12 0
BBX 12 14 0 0
BITMAP
0600
0900
0900
0600
0600
0B00
0B00
1180
1180
3FC0
20C0
4060
4060
E0F0
ENDCHAR
STARTCHAR AE
ENCODING 198
SWIDTH 876 0
DWIDTH 17 0
BBX 17 13 0 0
BITMAP
07FF00
01C300
02C100
02C000
04C000
04C200
08FE00
0FC200
10C000
10C000
20C080
20C180
F1FF80
ENDCHAR
STARTCHAR Ccedilla
ENCODING 199
SWIDTH 680 0
DWIDTH 13 0
BBX 11 17 1 -4
BITMAP
0FC0
3060
6020
6000
C000
C000
C000
C000
C000
6000
6020
3060
0F80
0200
0300
0100
0600
ENDCHAR
STARTCHAR Egrave
ENCODING 200
SWIDTH 606 0
DWIDTH 11 0
BBX 10 14 1 0
BITMAP
1800
0C00
0000
FF80
6180
6080
6000
6200
7E00
6200
6000
6040
60C0
FFC0
ENDCHAR
STARTCHAR Eacute
ENCODING 201
SWIDTH 606 0
DWIDTH 11 0
BBX 10 14 1 0
BITMAP
0600
0C00
0000
FF80
6180
6080
6000
6200
7E00
6200
6000
6040
60C0
FFC0
ENDCHAR
STARTCHAR Ecircumflex
ENCODING 202
SWIDTH 606 0
DWIDTH 11 0
BBX 10 14 1 0
BITMAP
1800
3400
0000
FF80
6180
6080
6000
6200
7E00
6200
6000
6040
60C0
FFC0
ENDCHAR
STARTCHAR Edieresis
ENCODING 203
SWIDTH 606 0
DWIDTH 11 0
BBX 10 14 1 0
BITMAP
3600
3600
0000
FF80
6180
6080
6000
6200
7E00
6200
6000
6040
60C0
FFC0
ENDCHAR
STARTCHAR Igrave
ENCODING 204
SWIDTH 349 0
DWIDTH 6 0
BBX 4 14 1 0
BITMAP
C0
60
00
F0
60
60
60
60
60
60
60
60
60
F0
ENDCHAR
STARTCHAR Iacute
ENCODING 205
SWIDTH 349 0
DWIDTH 6 0
BBX 4 14 1 0
BITMAP
30
60
00
F0
60
60
60
60
60
60
60
60
60
F0
ENDCHAR
STARTCHAR Icircumflex
ENCODING 206
SWIDTH 349 0
DWIDTH 6 0
BBX 4 14 1 0
BITMAP
60
D0
00
F0
60
60
60
60
60
60
60
60
60
F0
ENDCHAR
STARTCHAR Idieresis
ENCODING 207
SWIDTH 349 0
DWIDTH 6 0
BBX 5 14 0 0
BITMAP
D8
D8
00
78
30
30
30
30
30
30
30
30
30
78
ENDCHAR
STARTCHAR Eth
ENCODING 208
SWIDTH 785 0
DWIDTH 15 0
BBX 13 13 1 0
BITMAP
FF80
6060
6030
6030
6018
6018
F818
6018
6018
6030
6030
6060
FF80
ENDCHAR
STARTCHAR Ntilde
ENCODING 209
SWIDTH 780 0
DWIDTH 14 0
BBX 12 14 1 0
BITMAP
1C80
2700
0000
E070
7020
7820
5C20
4E20
4620
4320
43A0
41E0
40E0
E060
ENDCHAR
STARTCHAR Ograve
ENCODING 210
SWIDTH 762 0
DWIDTH 15 0
BBX 13 14 1 0
BITMAP
0C00
0600
0000
0F80
3060
6030
C018
C018
C018
C018
C018
6030
3060
0F80
ENDCHAR
STARTCHAR Oacute
ENCODING 211
SWIDTH 762 0
DWIDTH 15 0
BBX 13 14 1 0
BITMAP
0300
0600
0000
0F80
3060
6030
C018
C018
C018
C018
C018
6030
3060
0F80
ENDCHAR
STARTCHAR Ocircumflex
ENCODING 212
SWIDTH 762 0
DWIDTH 15 0
BBX 13 14 1 0
BITMAP
0600
0D00
0000
0F80
3060
6030
C018
C018
C018
C018
C018
6030
3060
0F80
ENDCHAR
STARTCHAR Otilde
ENCODING 213
SWIDTH 762 0
DWIDTH 15 0
BBX 13 14 1 0
BITMAP
0E40
1380
0000
0F80
3060
6030
C018
C018
C018
C018
C018
6030
3060
0F80
ENDCHAR
STARTCHAR Odieresis
ENCODING 214
SWIDTH 762 0
DWIDTH 15 0
BBX 13 14 1 0
BITMAP
0D80
0D80
0000
0F80
3060
6030
C018
C018
C018
C018
C018
6030
3060
0F80
ENDCHAR
STARTCHAR multiply
ENCODING 215
SWIDTH 570 0
DWIDTH 11 0
BBX 9 8 1 1
BITMAP
C180
6300
3600
1C00
1C00
3600
6300
C180
ENDCHAR
STARTCHAR Oslash
ENCODING 216
SWIDTH 762 0
DWIDTH 14 0
BBX 13 13 1 0
BITMAP
0FA0
3060
60B0
6130
C118
C218
C418
C418
C818
7030
6030
3060
4F80
ENDCHAR
STARTCHAR Ugrave
ENCODING 217
SWIDTH 791 0
DWIDTH 14 0
BBX 12 14 1 0
BITMAP
0C00
0600
0000
F0F0
6060
6060
6060
6060
6060
6060
6060
6060
30C0
0F00
ENDCHAR
STARTCHAR Uacute
ENCODING 218
SWIDTH 791 0
DWIDTH 14 0
BBX 12 14 1 0
BITMAP
0300
0600
0000
F0F0
6060
6060
6060
6060
6060
6060
6060
6060
30C0
0F00
ENDCHAR
STARTCHAR Ucircumflex
ENCODING 219
SWIDTH 791 0
DWIDTH 14 0
BBX 12 14 1 0
BITMAP
0600
0D00
0000
F0F0
6060
6060
6060
6060
6060
6060
6060
6060
30C0
0F00
ENDCHAR
STARTCHAR Udieresis
ENCODING 220
SWIDTH 791 0
DWIDTH 14 0
BBX 12 14 1 0
BITMAP
1B00
1B00
0000
F0F0
6060
6060
6060
6060
6060
6060
6060
6060
30C0
0F00
ENDCHAR
STARTCHAR Yacute
ENCODING 221
SWIDTH 588 0
DWIDTH 12 0
BBX 12 14 0 0
BITMAP
0300
0600
0000
F070
6020
3040
1880
0D00
0600
0600
0600
0600
0600
0F00
ENDCHAR
STARTCHAR Thorn
ENCODING 222
SWIDTH 593 0
DWIDTH 11 0
BBX 9 13 1 0
BITMAP
F000
6000
7E00
6300
6180
6180
6180
6180
6300
7C00
6000
6000
F000
ENDCHAR
STARTCHAR germandbls
ENCODING 223
SWIDTH 601 0
DWIDTH 11 0
BBX 10 14 0 0
BITMAP
1E00
3100
6180
6180
6100
6200
6600
6700
6380
61C0
60C0
60C0
6C80
E700
ENDCHAR
STARTCHAR agrave
ENCODING 224
SWIDTH 523 0
DWIDTH 10 0
BBX 8 12 1 0
BITMAP
30
18
00
7C
C6
06
0E
36
C6
C6
CE
77
ENDCHAR
STARTCHAR aacute
ENCODING 225
SWIDTH 523 0
DWIDTH 10 0
BBX 8 12 1 0
BITMAP
18
30
00
7C
C6
06
0E
36
C6
C6
CE
77
ENDCHAR
STARTCHAR acircumflex
ENCODING 226
SWIDTH 523 0
DWIDTH 10 0
BBX 8 12 1 0
BITMAP
30
68
00
7C
C6
06
0E
36
C6
C6
CE
77
ENDCHAR
STARTCHAR atilde
ENCODING 227
SWIDTH 523 0
DWIDTH 10 0
BBX 8 12 1 0
BITMAP
72
9C
00
7C
C6
06
0E
36
C6
C6
CE
77
ENDCHAR
STARTCHAR adieresis
ENCODING 228
SWIDTH 523 0
DWIDTH 10 0
BBX 8 12 1 0
BITMAP
6C
6C
00
7C
C6
06
0E
36
C6
C6
CE
77
ENDCHAR
STARTCHAR aring
ENCODING 229
SWIDTH 523 0
DWIDTH 10 0
BBX 8 14 1 0
BITMAP
18
24
24
18
00
7C
C6
06
0E
36
C6
C6
CE
77
ENDCHAR
STARTCHAR ae
ENCODING 230
SWIDTH 797 0
DWIDTH 15 0
BBX 13 9 1 0
BITMAP
7DE0
C730
0618
0FF8
3600
C600
C608
CF10
71E0
ENDCHAR
STARTCHAR ccedilla
ENCODING 231
SWIDTH 496 0
DWIDTH 9 0
BBX 8 13 1 -4
BITMAP
3C
66
C0
C0
C0
C0
C1
62
3C
08
0C
04
18
ENDCHAR
STARTCHAR egrave
ENCODING 232
SWIDTH 514 0
DWIDTH 10 0
BBX 8 12 1 0
BITMAP
30
18
00
3C
66
C3
FF
C0
C0
C1
62
3C
ENDCHAR
STARTCHAR eacute
ENCODING 233
SWIDTH 514 0
DWIDTH 10 0
BBX 8 12 1 0
BITMAP
0C
18
00
3C
66
C3
FF
C0
C0
C1
62
3C
ENDCHAR
STARTCHAR ecircumflex
ENCODING 234
SWIDTH 514 0
DWIDTH 10 0
BBX 8 12 1 0
BITMAP
30
68
00
3C
66
C3
FF
C0
C0
C1
62
3C
ENDCHAR
STARTCHAR edieresis
ENCODING 235
SWIDTH 514 0
DWIDTH 10 0
BBX 8 12 1 0
BITMAP
6C
6C
00
3C
66
C3
FF
C0
C0
C1
62
3C
ENDCHAR
STARTCHAR igrave
ENCODING 236
SWIDTH 291 0
DWIDTH 6 0
BBX 4 12 1 0
BITMAP
C0
60
00
E0
60
60
60
60
60
60
60
F0
ENDCHAR
STARTCHAR iacute
ENCODING 237
SWIDTH 291 0
DWIDTH 6 0
BBX 4 12 1 0
BITMAP
60
C0
00
E0
60
60
60
60
60
60
60
F0
ENDCHAR
STARTCHAR icircumflex
ENCODING 238
SWIDTH 291 0
DWIDTH 6 0
BBX 5 12 0 0
BITMAP
60
D0
00
70
30
30
30
30
30
30
30
78
ENDCHAR
STARTCHAR idieresis
ENCODING 239
SWIDTH 291 0
DWIDTH 6 0
BBX 5 12 0 0
BITMAP
D8
D8
00
70
30
30
30
30
30
30
30
78
ENDCHAR
STARTCHAR eth
ENCODING 240
SWIDTH 577 0
DWIDTH 11 0
BBX 9 14 1 0
BITMAP
2200
3400
1800
2C00
4600
3F00
6300
C180
C180
C180
C180
C180
6300
3E00
ENDCHAR
STARTCHAR ntilde
ENCODING 241
SWIDTH 619 0
DWIDTH 12 0
BBX 10 12 1 0
BITMAP
3900
4E00
0000
EF00
7380
6180
6180
6180
6180
6180
6180
F3C0
ENDCHAR
STARTCHAR ograve
ENCODING 242
SWIDTH 577 0
DWIDTH 11 0
BBX 9 12 1 0
BITMAP
3000
1800
0000
3E00
6300
C180
C180
C180
C180
C180
6300
3E00
ENDCHAR
STARTCHAR oacute
ENCODING 243
SWIDTH 577 0
DWIDTH 11 0
BBX 9 12 1 0
BITMAP
0C00
1800
0000
3E00
6300
C180
C180
C180
C180
C180
6300
3E00
ENDCHAR
STARTCHAR ocircumflex
ENCODING 244
SWIDTH 577 0
DWIDTH 11 0
BBX 9 12 1 0
BITMAP
1800
3400
0000
3E00
6300
C180
C180
C180
C180
C180
6300
3E00
ENDCHAR
STARTCHAR otilde
ENCODING 245
SWIDTH 577 0
DWIDTH 11 0
BBX 9 12 1 0
BITMAP
3900
4E00
0000
3E00
6300
C180
C180
C180
C180
C180
6300
3E00
ENDCHAR
STARTCHAR odieresis
ENCODING 246
SWIDTH 577 0
DWIDTH 11 0
BBX 9 12 1 0
BITMAP
3600
3600
0000
3E00
6300
C180
C180
C180
C180
C180
6300
3E00
ENDCHAR
STARTCHAR divide
ENCODING 247
SWIDTH 570 0
DWIDTH 11 0
BBX 9 7 1 1
BITMAP
0800
0800
0000
FF80
0000
0800
0800
ENDCHAR
STARTCHAR oslash
ENCODING 248
SWIDTH 577 0
DWIDTH 11 0
BBX 9 11 1 -1
BITMAP
0100
3E00
6300
C580
C580
C980
D180
D180
6300
3E00
4000
ENDCHAR
STARTCHAR ugrave
ENCODING 249
SWIDTH 606 0
DWIDTH 11 0
BBX 10 12 0 0
BITMAP
1800
0C00
0000
E380
6180
6180
6180
6180
6180
6180
7380
3DC0
ENDCHAR
STARTCHAR uacute
ENCODING 250
SWIDTH 606 0
DWIDTH 11 0
BBX 10 12 0 0
BITMAP
0C00
1800
0000
E380
6180
6180
6180
6180
6180
6180
7380
3DC0
ENDCHAR
STARTCHAR ucircumflex
ENCODING 251
SWIDTH 606 0
DWIDTH 11 0
BBX 10 12 0 0
BITMAP
1800
3400
0000
E380
6180
6180
6180
6180
6180
6180
7380
3DC0
ENDCHAR
STARTCHAR udieresis
ENCODING 252
SWIDTH 606 0
DWIDTH 11 0
BBX 10 12 0 0
BITMAP
3600
3600
0000
E380
6180
6180
6180
6180
6180
6180
7380
3DC0
ENDCHAR
STARTCHAR yacute
ENCODING 253
SWIDTH 506 0
DWIDTH 9 0
BBX 9 16 0 -4
BITMAP
0C00
1800
0000
F380
6100
6100
3200
3200
3200
1C00
1C00
0800
0800
1000
F000
6000
ENDCHAR
STARTCHAR thorn
ENCODING 254
SWIDTH 606 0
DWIDTH 12 0
BBX 10 16 1 -4
BITMAP
E000
6000
6000
6F00
7180
60C0
60C0
60C0
60C0
60C0
7180
6F00
6000
6000
6000
F000
ENDCHAR
STARTCHAR ydieresis
ENCODING 255
SWIDTH 506 0
DWIDTH 9 0
BBX 9 16 0 -4
BITMAP
3600
3600
0000
F380
6100
6100
3200
3200
3200
1C00
1C00
0800
0800
1000
F000
6000
ENDCHAR
STARTCHAR Amacron
ENCODING 256
SWIDTH 635 0
DWIDTH 12 0
BBX 12 15 0 0
BITMAP
0F80
0000
0600
0600
0B00
0B00
0B00
1180
1180
3FC0
20C0
20C0
4060
4060
E0F0
ENDCHAR
STARTCHAR amacron
ENCODING 257
SWIDTH 523 0
DWIDTH 10 0
BBX 8 11 1 0
BITMAP
7C
00
7C
C6
06
0E
36
C6
C6
CE
77
ENDCHAR
STARTCHAR Abreve
ENCODING 258
SWIDTH 635 0
DWIDTH 12 0
BBX 12 16 0 0
BITMAP
0880
0700
0000
0600
0600
0B00
0B00
0B00
1180
1180
3FC0
20C0
20C0
4060
4060
E0F0
ENDCHAR
STARTCHAR abreve
ENCODING 259
SWIDTH 523 0
DWIDTH 10 0
BBX 8 12 1 0
BITMAP
44
38
00
7C
C6
06
0E
36
C6
C6
CE
77
ENDCHAR
STARTCHAR Aogonek
ENCODING 260
SWIDTH 635 0
DWIDTH 12 0
BBX 12 17 0 -4
BITMAP
0600
0600
0B00
0B00
0B00
1180
1180
3FC0
20C0
20C0
4060
4060
E0F0
0100
0200
0600
0380
ENDCHAR
STARTCHAR aogonek
ENCODING 261
SWIDTH 523 0
DWIDTH 10 0
BBX 8 13 1 -4
BITMAP
7C
C6
06
0E
36
C6
C6
CE
77
08
10
30
1C
ENDCHAR
STARTCHAR Cacute
ENCODING 262
SWIDTH 684 0
DWIDTH 13 0
BBX 11 16 1 0
BITMAP
0300
0600
0000
0FC0
3060
6020
6000
C000
C000
C000
C000
C000
6000
6020
3060
0F80
ENDCHAR
STARTCHAR cacute
ENCODING 263
SWIDTH 496 0
DWIDTH 9 0
BBX 8 12 1 0
BITMAP
18
30
00
3C
66
C0
C0
C0
C0
C1
62
3C
ENDCHAR
STARTCHAR Ccircumflex
ENCODING 264
SWIDTH 684 0
DWIDTH 13 0
BBX 11 16 1 0
BITMAP
0600
0D00
0000
0FC0
3060
6020
6000
C000
C000
C000
C000
C000
6000
6020
3060
0F80
ENDCHAR
STARTCHAR ccircumflex
ENCODING 265
SWIDTH 496 0
DWIDTH 9 0
BBX 8 12 1 0
BITMAP
18
34
00
3C
66
C0
C0
C0
C0
C1
62
3C
ENDCHAR
STARTCHAR Cdotaccent
ENCODING 266
SWIDTH 684 0
DWIDTH 13 0
BBX 11 16 1 0
BITMAP
0600
0600
0000
0FC0
3060
6020
6000
C000
C000
C000
C000
C000
6000
6020
3060
0F80
ENDCHAR
STARTCHAR cdotaccent
ENCODING 267
SWIDTH 496 0
DWIDTH 9 0
BBX 8 12 1 0
BITMAP
18
18
00
3C
66
C0
C0
C0
C0
C1
62
3C
ENDCHAR
STARTCHAR Ccaron
ENCODING 268
SWIDTH 684 0
DWIDTH 13 0
BBX 11 16 1 0
BITMAP
0D00
0600
0000
0FC0
3060
6020
6000
C000
C000
C000
C000
C000
6000
6020
3060
0F80
ENDCHAR
STARTCHAR ccaron
ENCODING 269
SWIDTH 496 0
DWIDTH 9 0
BBX 8 12 1 0
BITMAP
34
18
00
3C
66
C0
C0
C0
C0
C1
62
3C
ENDCHAR
STARTCHAR Dcaron
ENCODING 270
SWIDTH 779 0
DWIDTH 15 0
BBX 13 16 1 0
BITMAP
0D00
0600
0000
FF80
6060
6030
6030
6018
6018
6018
6018
6018
6030
6030
6060
FF80
ENDCHAR
STARTCHAR dcaron
ENCODING 271
SWIDTH 846 0
DWIDTH 16 0
BBX 14 14 1 0
BITMAP
0380
0188
019C
018C
0188
3D90
6380
C180
C180
C180
C180
C180
6380
3DC0
ENDCHAR
STARTCHAR Dcroat
ENCODING 272
SWIDTH 785 0
DWIDTH 15 0
BBX 13 13 1 0
BITMAP
FF80
6060
6030
6030
6018
6018
F818
6018
6018
6030
6030
6060
FF80
ENDCHAR
STARTCHAR dcroat
ENCODING 273
SWIDTH 598 0
DWIDTH 12 0
BBX 10 14 1 0
BITMAP
0380
0180
0180
0780
0180
3D80
6380
C180
C180
C180
C180
C180
6380
3DC0
ENDCHAR
STARTCHAR Emacron
ENCODING 274
SWIDTH 606 0
DWIDTH 11 0
BBX 10 15 1 0
BITMAP
3E00
0000
FF80
6180
6080
6000
6000
6100
7F00
6100
6000
6000
6040
60C0
FFC0
ENDCHAR
STARTCHAR emacron
ENCODING 275
SWIDTH 514 0
DWIDTH 10 0
BBX 8 11 1 0
BITMAP
3E
00
3C
66
C3
FF
C0
C0
C1
62
3C
ENDCHAR
STARTCHAR Ebreve
ENCODING 276
SWIDTH 606 0
DWIDTH 11 0
BBX 10 16 1 0
BITMAP
2200
1C00
0000
FF80
6180
6080
6000
6000
6100
7F00
6100
6000
6000
6040
60C0
FFC0
ENDCHAR
STARTCHAR ebreve
ENCODING 277
SWIDTH 514 0
DWIDTH 10 0
BBX 8 12 1 0
BITMAP
22
1C
00
3C
66
C3
FF
C0
C0
C1
62
3C
ENDCHAR
STARTCHAR Edotaccent
ENCODING 278
SWIDTH 606 0
DWIDTH 11 0
BBX 10 16 1 0
BITMAP
0C00
0C00
0000
FF80
6180
6080
6000
6000
6100
7F00
6100
6000
6000
6040
60C0
FFC0
ENDCHAR
STARTCHAR edotaccent
ENCODING 279
SWIDTH 514 0
DWIDTH 10 0
BBX 8 12 1 0
BITMAP
18
18
00
3C
66
C3
FF
C0
C0
C1
62
3C
ENDCHAR
STARTCHAR Eogonek
ENCODING 280
SWIDTH 606 0
DWIDTH 11 0
BBX 10 17 1 -4
BITMAP
FF80
6180
6080
6000
6000
6100
7F00
6100
6000
6000
6040
60C0
FFC0
0400
0800
1800
0E00
ENDCHAR
STARTCHAR eogonek
ENCODING 281
SWIDTH 514 0
DWIDTH 10 0
BBX 8 13 1 -4
BITMAP
3C
66
C3
FF
C0
C0
C1
62
3C
08
10
30
1C
ENDCHAR
STARTCHAR Ecaron
ENCODING 282
SWIDTH 606 0
DWIDTH 11 0
BBX 10 16 1 0
BITMAP
1A00
0C00
0000
FF80
6180
6080
6000
6000
6100
7F00
6100
6000
6000
6040
60C0
FFC0
ENDCHAR
STARTCHAR ecaron
ENCODING 283
SWIDTH 514 0
DWIDTH 10 0
BBX 8 12 1 0
BITMAP
34
18
00
3C
66
C3
FF
C0
C0
C1
62
3C
ENDCHAR
STARTCHAR Gcircumflex
ENCODING 284
SWIDTH 734 0
DWIDTH 14 0
BBX 13 16 1 0
BITMAP
0600
0D00
0000
0FC0
3060
6020
C000
C000
C000
C000
C0F8
C030
C030
6030
3070
0FC0
ENDCHAR
STARTCHAR gcircumflex
ENCODING 285
SWIDTH 520 0
DWIDTH 10 0
BBX 10 16 0 -4
BITMAP
0C00
1A00
0000
1FC0
3300
6180
6180
3300
1E00
3000
3E00
6780
C0C0
C0C0
6180
3F00
ENDCHAR
STARTCHAR Gbreve
ENCODING 286
SWIDTH 734 0
DWIDTH 14 0
BBX 13 16 1 0
BITMAP
1100
0E00
0000
0FC0
3060
6020
C000
C000
C000
C000
C0F8
C030
C030
6030
3070
0FC0
ENDCHAR
STARTCHAR gbreve
ENCODING 287
SWIDTH 520 0
DWIDTH 10 0
BBX 10 16 0 -4
BITMAP
1100
0E00
0000
1FC0
3300
6180
6180
3300
1E00
3000
3E00
6780
C0C0
C0C0
6180
3F00
ENDCHAR
STARTCHAR Gdotaccent
ENCODING 288
SWIDTH 734 0
DWIDTH 14 0
BBX 13 16 1 0
BITMAP
0600
0600
0000
0FC0
3060
6020
C000
C000
C000
C000
C0F8
C030
C030
6030
3070
0FC0
ENDCHAR
STARTCHAR gdotaccent
ENCODING 289
SWIDTH 520 0
DWIDTH 10 0
BBX 10 16 0 -4
BITMAP
0C00
0C00
0000
1FC0
3300
6180
6180
3300
1E00
3000
3E00
6780
C0C0
C0C0
6180
3F00
ENDCHAR
STARTCHAR Gcommaaccent
ENCODING 290
SWIDTH 734 0
DWIDTH 14 0
BBX 13 19 1 -6
BITMAP
0FC0
3060
6020
C000
C000
C000
C000
C0F8
C030
C030
6030
3070
0FC0
0000
0200
0700
0300
0200
0400
ENDCHAR
STARTCHAR gcommaaccent
ENCODING 291
SWIDTH 520 0
DWIDTH 10 0
BBX 10 19 0 -4
BITMAP
0200
0400
0C00
0E00
0400
0000
1FC0
3300
6180
6180
3300
1E00
3000
3E00
6780
C0C0
C0C0
6180
3F00
ENDCHAR
STARTCHAR Hcircumflex
ENCODING 292
SWIDTH 798 0
DWIDTH 15 0
BBX 13 16 1 0
BITMAP
0300
0680
0000
F078
6030
6030
6030
6030
6030
7FF0
6030
6030
6030
6030
6030
F078
ENDCHAR
STARTCHAR hcircumflex
ENCODING 293
SWIDTH 607 0
DWIDTH 12 0
BBX 10 17 1 0
BITMAP
3000
6800
0000
E000
6000
6000
6000
6000
6F00
7380
6180
6180
6180
6180
6180
6180
F3C0
ENDCHAR
STARTCHAR Hbar
ENCODING 294
SWIDTH 798 0
DWIDTH 15 0
BBX 13 13 1 0
BITMAP
F078
6030
6030
FFF8
6030
6030
7FF0
6030
6030
6030
6030
6030
F078
ENDCHAR
STARTCHAR hbar
ENCODING 295
SWIDTH 607 0
DWIDTH 12 0
BBX 10 14 1 0
BITMAP
E000
6000
6000
7800
6000
6F00
7380
6180
6180
6180
6180
6180
6180
F3C0
ENDCHAR
STARTCHAR Itilde
ENCODING 296
SWIDTH 349 0
DWIDTH 6 0
BBX 7 16 0 0
BITMAP
72
9C
00
78
30
30
30
30
30
30
30
30
30
30
30
78
ENDCHAR
STARTCHAR itilde
ENCODING 297
SWIDTH 291 0
DWIDTH 6 0
BBX 7 12 -1 0
BITMAP
72
9C
00
38
18
18
18
18
18
18
18
3C
ENDCHAR
STARTCHAR Imacron
ENCODING 298
SWIDTH 349 0
DWIDTH 6 0
BBX 5 15 1 0
BITMAP
F8
00
F0
60
60
60
60
60
60
60
60
60
60
60
F0
ENDCHAR
STARTCHAR imacron
ENCODING 299
SWIDTH 291 0
DWIDTH 6 0
BBX 5 11 0 0
BITMAP
F8
00
70
30
30
30
30
30
30
30
78
ENDCHAR
STARTCHAR Ibreve
ENCODING 300
SWIDTH 349 0
DWIDTH 6 0
BBX 5 16 1 0
BITMAP
88
70
00
F0
60
60
60
60
60
60
60
60
60
60
60
F0
ENDCHAR
STARTCHAR ibreve
ENCODING 301
SWIDTH 291 0
DWIDTH 6 0
BBX 5 12 0 0
BITMAP
88
70
00
70
30
30
30
30
30
30
30
78
ENDCHAR
STARTCHAR Iogonek
ENCODING 302
SWIDTH 349 0
DWIDTH 6 0
BBX 4 17 1 -4
BITMAP
F0
60
60
60
60
60
60
60
60
60
60
60
F0
20
40
C0
70
ENDCHAR
STARTCHAR iogonek
ENCODING 303
SWIDTH 291 0
DWIDTH 6 0
BBX 4 16 1 -4
BITMAP
60
60
00
E0
60
60
60
60
60
60
60
F0
20
40
C0
70
ENDCHAR
STARTCHAR Idotaccent
ENCODING 304
SWIDTH 349 0
DWIDTH 6 0
BBX 4 16 1 0
BITMAP
60
60
00
F0
60
60
60
60
60
60
60
60
60
60
60
F0
ENDCHAR
STARTCHAR dotlessi
ENCODING 305
SWIDTH 291 0
DWIDTH 6 0
BBX 4 9 1 0
BITMAP
E0
60
60
60
60
60
60
60
F0
ENDCHAR
STARTCHAR IJ
ENCODING 306
SWIDTH 682 0
DWIDTH 12 0
BBX 10 15 1 -2
BITMAP
F3C0
6180
6180
6180
6180
6180
6180
6180
6180
6180
6180
6180
F180
0300
0C00
ENDCHAR
STARTCHAR ij
ENCODING 307
SWIDTH 556 0
DWIDTH 12 0
BBX 9 16 1 -4
BITMAP
6180
6180
0000
E380
6180
6180
6180
6180
6180
6180
6180
F180
0180
0180
0300
0C00
ENDCHAR
STARTCHAR Jcircumflex
ENCODING 308
SWIDTH 350 0
DWIDTH 6 0
BBX 6 18 -1 -2
BITMAP
18
34
00
3C
18
18
18
18
18
18
18
18
18
18
18
18
30
C0
ENDCHAR
STARTCHAR jcircumflex
ENCODING 309
SWIDTH 280 0
DWIDTH 6 0
BBX 6 16 -1 -4
BITMAP
18
34
00
38
18
18
18
18
18
18
18
18
18
18
30
C0
ENDCHAR
STARTCHAR Kcommaaccent
ENCODING 310
SWIDTH 658 0
DWIDTH 12 0
BBX 11 19 1 -6
BITMAP
F1E0
6080
6100
6200
6400
6800
7C00
6E00
6600
6300
6380
61C0
F0E0
0000
0400
0E00
0600
0400
0800
ENDCHAR
STARTCHAR kcommaaccent
ENCODING 311
SWIDTH 524 0
DWIDTH 10 0
BBX 10 20 0 -6
BITMAP
E000
6000
6000
6000
6000
6180
6300
6400
7800
6C00
6600
6300
6180
F0C0
0000
0800
1C00
0C00
0800
1000
ENDCHAR
STARTCHAR kgreenlandic
ENCODING 312
SWIDTH 524 0
DWIDTH 10 0
BBX 10 9 0 0
BITMAP
6180
6300
6400
7800
6C00
6600
6300
6180
F0C0
ENDCHAR
STARTCHAR Lacute
ENCODING 313
SWIDTH 568 0
DWIDTH 11 0
BBX 10 16 1 0
BITMAP
1800
3000
0000
F000
6000
6000
6000
6000
6000
6000
6000
6000
6000
6040
60C0
FFC0
ENDCHAR
STARTCHAR lacute
ENCODING 314
SWIDTH 279 0
DWIDTH 6 0
BBX 4 17 1 0
BITMAP
30
60
00
E0
60
60
60
60
60
60
60
60
60
60
60
60
F0
ENDCHAR
STARTCHAR Lcommaaccent
ENCODING 315
SWIDTH 568 0
DWIDTH 11 0
BBX 10 19 1 -6
BITMAP
F000
6000
6000
6000
6000
6000
6000
6000
6000
6000
6040
60C0
FFC0
0000
0800
1C00
0C00
0800
1000
ENDCHAR
STARTCHAR lcommaaccent
ENCODING 316
SWIDTH 279 0
DWIDTH 6 0
BBX 4 20 1 -6
BITMAP
E0
60
60
60
60
60
60
60
60
60
60
60
60
F0
00
20
70
30
20
40
ENDCHAR
STARTCHAR Lcaron
ENCODING 317
SWIDTH 818 0
DWIDTH 15 0
BBX 13 13 1 0
BITMAP
F010
6038
6018
6010
6020
6000
6000
6000
6000
6000
6040
60C0
FFC0
ENDCHAR
STARTCHAR lcaron
ENCODING 318
SWIDTH 543 0
DWIDTH 11 0
BBX 9 14 1 0
BITMAP
E000
6100
6380
6180
6100
6200
6000
6000
6000
6000
6000
6000
6000
F000
ENDCHAR
STARTCHAR Ldot
ENCODING 319
SWIDTH 805 0
DWIDTH 15 0
BBX 12 13 1 0
BITMAP
F000
6000
6000
6000
6000
6000
6000
6030
6030
6000
6040
60C0
FFC0
ENDCHAR
STARTCHAR ldot
ENCODING 320
SWIDTH 530 0
DWIDTH 11 0
BBX 8 14 1 0
BITMAP
E0
60
60
60
60
60
60
60
63
63
60
60
60
F0
ENDCHAR
STARTCHAR Lslash
ENCODING 321
SWIDTH 574 0
DWIDTH 11 0
BBX 11 13 0 0
BITMAP
7800
3000
3000
3000
3400
3800
3000
7000
B000
3000
3020
3060
7FE0
ENDCHAR
STARTCHAR lslash
ENCODING 322
SWIDTH 294 0
DWIDTH 6 0
BBX 6 14 0 0
BITMAP
70
30
30
30
34
38
30
30
70
B0
30
30
30
78
ENDCHAR
STARTCHAR Nacute
ENCODING 323
SWIDTH 780 0
DWIDTH 14 0
BBX 12 16 1 0
BITMAP
0600
0C00
0000
E070
7020
7020
5820
5C20
4C20
4620
4720
4320
41A0
41E0
40E0
E060
ENDCHAR
STARTCHAR nacute
ENCODING 324
SWIDTH 619 0
DWIDTH 12 0
BBX 10 12 1 0
BITMAP
0600
0C00
0000
EF00
7380
6180
6180
6180
6180
6180
6180
F3C0
ENDCHAR
STARTCHAR Ncommaaccent
ENCODING 325
SWIDTH 780 0
DWIDTH 14 0
BBX 12 19 1 -6
BITMAP
E070
7020
7020
5820
5C20
4C20
4620
4720
4320
41A0
41E0
40E0
E060
0000
0200
0700
0300
0200
0400
ENDCHAR
STARTCHAR ncommaaccent
ENCODING 326
SWIDTH 619 0
DWIDTH 12 0
BBX 10 15 1 -6
BITMAP
EF00
7380
6180
6180
6180
6180
6180
6180
F3C0
0000
0400
0E00
0600
0400
0800
ENDCHAR
STARTCHAR Ncaron
ENCODING 327
SWIDTH 780 0
DWIDTH 14 0
BBX 12 16 1 0
BITMAP
1A00
0C00
0000
E070
7020
7020
5820
5C20
4C20
4620
4720
4320
41A0
41E0
40E0
E060
ENDCHAR
STARTCHAR ncaron
ENCODING 328
SWIDTH 619 0
DWIDTH 12 0
BBX 10 12 1 0
BITMAP
1A00
0C00
0000
EF00
7380
6180
6180
6180
6180
6180
6180
F3C0
ENDCHAR
STARTCHAR napostrophe
ENCODING 329
SWIDTH 883 0
DWIDTH 17 0
BBX 15 13 1 0
BITMAP
4000
E000
6000
4000
8778
039C
030C
030C
030C
030C
030C
030C
079E
ENDCHAR
STARTCHAR Eng
ENCODING 330
SWIDTH 780 0
DWIDTH 14 0
BBX 12 17 1 -4
BITMAP
E070
7020
7020
5820
5C20
4C20
4620
4720
4320
41E0
41E0
40E0
E060
0060
0060
00C0
0300
ENDCHAR
STARTCHAR eng
ENCODING 331
SWIDTH 619 0
DWIDTH 12 0
BBX 9 13 1 -4
BITMAP
EF00
7380
6180
6180
6180
6180
6180
6180
F180
0180
0180
0300
0C00
ENDCHAR
STARTCHAR Omacron
ENCODING 332
SWIDTH 762 0
DWIDTH 14 0
BBX 13 15 1 0
BITMAP
0F80
0000
0F80
3060
6030
6030
C018
C018
C018
C018
C018
6030
6030
3060
0F80
ENDCHAR
STARTCHAR omacron
ENCODING 333
SWIDTH 577 0
DWIDTH 11 0
BBX 9 11 1 0
BITMAP
3E00
0000
3E00
6300
C180
C180
C180
C180
C180
6300
3E00
ENDCHAR
STARTCHAR Obreve
ENCODING 334
SWIDTH 762 0
DWIDTH 14 0
BBX 13 16 1 0
BITMAP
0880
0700
0000
0F80
3060
6030
6030
C018
C018
C018
C018
C018
6030
6030
3060
0F80
ENDCHAR
STARTCHAR obreve
ENCODING 335
SWIDTH 577 0
DWIDTH 11 0
BBX 9 12 1 0
BITMAP
2200
1C00
0000
3E00
6300
C180
C180
C180
C180
C180
6300
3E00
ENDCHAR
STARTCHAR Ohungarumlaut
ENCODING 336
SWIDTH 762 0
DWIDTH 14 0
BBX 13 16 1 0
BITMAP
06C0
0D80
0000
0F80
3060
6030
6030
C018
C018
C018
C018
C018
6030
6030
3060
0F80
ENDCHAR
STARTCHAR ohungarumlaut
ENCODING 337
SWIDTH 577 0
DWIDTH 11 0
BBX 9 12 1 0
BITMAP
1B00
3600
0000
3E00
6300
C180
C180
C180
C180
C180
6300
3E00
ENDCHAR
STARTCHAR OE
ENCODING 338
SWIDTH 1025 0
DWIDTH 19 0
BBX 18 13 1 0
BITMAP
0FFF80
306180
606080
606000
C06000
C06100
C07F00
C06100
C06000
606000
606040
3060C0
0FFFC0
ENDCHAR
STARTCHAR oe
ENCODING 339
SWIDTH 882 0
DWIDTH 16 0
BBX 15 9 0 0
BITMAP
3E78
63CC
C186
C1FE
C180
C180
C182
63C4
3E78
ENDCHAR
STARTCHAR Racute
ENCODING 340
SWIDTH 644 0
DWIDTH 12 0
BBX 11 16 1 0
BITMAP
0600
0C00
0000
FF00
6180
60C0
60C0
60C0
6180
7F00
6300
6180
6180
6180
60C0
F0E0
ENDCHAR
STARTCHAR racute
ENCODING 341
SWIDTH 389 0
DWIDTH 7 0
BBX 6 12 1 0
BITMAP
18
30
00
EC
74
60
60
60
60
60
60
F0
ENDCHAR
STARTCHAR Rcommaaccent
ENCODING 342
SWIDTH 644 0
DWIDTH 12 0
BBX 11 19 1 -6
BITMAP
FF00
6180
60C0
60C0
60C0
6180
7F00
6300
6180
6180
6180
60C0
F0E0
0000
0400
0E00
0600
0400
0800
ENDCHAR
STARTCHAR rcommaaccent
ENCODING 343
SWIDTH 389 0
DWIDTH 7 0
BBX 6 15 1 -6
BITMAP
EC
74
60
60
60
60
60
60
F0
00
20
70
30
20
40
ENDCHAR
STARTCHAR Rcaron
ENCODING 344
SWIDTH 644 0
DWIDTH 12 0
BBX 11 16 1 0
BITMAP
1A00
0C00
0000
FF00
6180
60C0
60C0
60C0
6180
7F00
6300
6180
6180
6180
60C0
F0E0
ENDCHAR
STARTCHAR rcaron
ENCODING 345
SWIDTH 389 0
DWIDTH 7 0
BBX 6 12 1 0
BITMAP
68
30
00
EC
74
60
60
60
60
60
60
F0
ENDCHAR
STARTCHAR Sacute
ENCODING 346
SWIDTH 541 0
DWIDTH 10 0
BBX 8 16 1 0
BITMAP
0C
18
00
3E
63
C1
C0
E0
78
1E
07
03
03
83
C6
7C
ENDCHAR
STARTCHAR sacute
ENCODING 347
SWIDTH 436 0
DWIDTH 8 0
BBX 6 12 1 0
BITMAP
18
30
00
78
CC
80
E0
78
1C
04
CC
78
ENDCHAR
STARTCHAR Scircumflex
ENCODING 348
SWIDTH 541 0
DWIDTH 10 0
BBX 8 16 1 0
BITMAP
18
34
00
3E
63
C1
C0
E0
78
1E
07
03
03
83
C6
7C
ENDCHAR
STARTCHAR scircumflex
ENCODING 349
SWIDTH 436 0
DWIDTH 8 0
BBX 6 12 1 0
BITMAP
30
68
00
78
CC
80
E0
78
1C
04
CC
78
ENDCHAR
STARTCHAR Scedilla
ENCODING 350
SWIDTH 541 0
DWIDTH 10 0
BBX 8 17 1 -4
BITMAP
3E
63
C1
C0
E0
78
1E
07
03
03
83
C6
7C
10
18
08
30
ENDCHAR
STARTCHAR scedilla
ENCODING 351
SWIDTH 436 0
DWIDTH 8 0
BBX 6 13 1 -4
BITMAP
78
CC
80
E0
78
1C
04
CC
78
20
30
10
60
ENDCHAR
STARTCHAR Scaron
ENCODING 352
SWIDTH 541 0
DWIDTH 10 0
BBX 8 14 1 0
BITMAP
34
18
00
3E
63
C1
E0
70
3C
0E
07
83
C6
7C
ENDCHAR
STARTCHAR scaron
ENCODING 353
SWIDTH 436 0
DWIDTH 8 0
BBX 6 12 1 0
BITMAP
68
30
00
78
CC
80
E0
78
1C
04
CC
78
ENDCHAR
STARTCHAR Tcommaaccent
ENCODING 354
SWIDTH 621 0
DWIDTH 12 0
BBX 12 17 0 -4
BITMAP
FFF0
C630
8610
0600
0600
0600
0600
0600
0600
0600
0600
0600
1F80
0400
0600
0200
0C00
ENDCHAR
STARTCHAR tcommaaccent
ENCODING 355
SWIDTH 344 0
DWIDTH 6 0
BBX 5 15 1 -4
BITMAP
20
60
F8
60
60
60
60
60
60
60
38
20
30
10
60
ENDCHAR
STARTCHAR Tcaron
ENCODING 356
SWIDTH 621 0
DWIDTH 12 0
BBX 12 16 0 0
BITMAP
0D00
0600
0000
FFF0
C630
8610
0600
0600
0600
0600
0600
0600
0600
0600
0600
1F80
ENDCHAR
STARTCHAR tcaron
ENCODING 357
SWIDTH 605 0
DWIDTH 11 0
BBX 9 13 1 0
BITMAP
0100
0380
2180
6100
FA00
6000
6000
6000
6000
6000
6000
6000
3800
ENDCHAR
STARTCHAR Tbar
ENCODING 358
SWIDTH 621 0
DWIDTH 12 0
BBX 12 13 0 0
BITMAP
FFF0
C630
8610
0600
0600
0600
0F00
0600
0600
0600
0600
0600
1F80
ENDCHAR
STARTCHAR tbar
ENCODING 359
SWIDTH 344 0
DWIDTH 6 0
BBX 5 11 1 0
BITMAP
20
60
F8
60
60
78
60
60
60
60
38
ENDCHAR
STARTCHAR Utilde
ENCODING 360
SWIDTH 791 0
DWIDTH 14 0
BBX 12 16 1 0
BITMAP
0E40
1380
0000
F0F0
6060
6060
6060
6060
6060
6060
6060
6060
6060
6060
30C0
0F00
ENDCHAR
STARTCHAR utilde
ENCODING 361
SWIDTH 606 0
DWIDTH 11 0
BBX 10 12 0 0
BITMAP
3900
4E00
0000
E380
6180
6180
6180
6180
6180
6180
7380
3DC0
ENDCHAR
STARTCHAR Umacron
ENCODING 362
SWIDTH 791 0
DWIDTH 14 0
BBX 12 15 1 0
BITMAP
0F80
0000
F0F0
6060
6060
6060
6060
6060
6060
6060
6060
6060
6060
30C0
0F00
ENDCHAR
STARTCHAR umacron
ENCODING 363
SWIDTH 606 0
DWIDTH 11 0
BBX 10 11 0 0
BITMAP
3E00
0000
E380
6180
6180
6180
6180
6180
6180
7380
3DC0
ENDCHAR
STARTCHAR Ubreve
ENCODING 364
SWIDTH 791 0
DWIDTH 14 0
BBX 12 16 1 0
BITMAP
0880
0700
0000
F0F0
6060
6060
6060
6060
6060
6060
6060
6060
6060
6060
30C0
0F00
ENDCHAR
STARTCHAR ubreve
ENCODING 365
SWIDTH 606 0
DWIDTH 11 0
BBX 10 12 0 0
BITMAP
2200
1C00
0000
E380
6180
6180
6180
6180
6180
6180
7380
3DC0
ENDCHAR
STARTCHAR Uring
ENCODING 366
SWIDTH 791 0
DWIDTH 14 0
BBX 12 18 1 0
BITMAP
0600
0900
0900
0600
0000
F0F0
6060
6060
6060
6060
6060
6060
6060
6060
6060
6060
30C0
0F00
ENDCHAR
STARTCHAR uring
ENCODING 367
SWIDTH 606 0
DWIDTH 11 0
BBX 10 14 0 0
BITMAP
0C00
1200
1200
0C00
0000
E380
6180
6180
6180
6180
6180
6180
7380
3DC0
ENDCHAR
STARTCHAR Uhungarumlaut
ENCODING 368
SWIDTH 791 0
DWIDTH 14 0
BBX 12 16 1 0
BITMAP
0D80
1B00
0000
F0F0
6060
6060
6060
6060
6060
6060
6060
6060
6060
6060
30C0
0F00
ENDCHAR
STARTCHAR uhungarumlaut
ENCODING 369
SWIDTH 606 0
DWIDTH 11 0
BBX 10 12 0 0
BITMAP
1B00
3600
0000
E380
6180
6180
6180
6180
6180
6180
7380
3DC0
ENDCHAR
STARTCHAR Uogonek
ENCODING 370
SWIDTH 791 0
DWIDTH 14 0
BBX 12 17 1 -4
BITMAP
F0F0
6060
6060
6060
6060
6060
6060
6060
6060
6060
6060
30C0
0F00
0200
0400
0C00
0700
ENDCHAR
STARTCHAR uogonek
ENCODING 371
SWIDTH 606 0
DWIDTH 11 0
BBX 10 13 0 -4
BITMAP
E380
6180
6180
6180
6180
6180
6180
7380
3DC0
0400
0800
1800
0E00
ENDCHAR
STARTCHAR Wcircumflex
ENCODING 372
SWIDTH 940 0
DWIDTH 18 0
BBX 18 16 0 0
BITMAP
018000
034000
000000
F001C0
604080
604080
30E100
30E100
30E100
193200
193200
193200
0E1C00
0E1C00
0E1C00
040800
ENDCHAR
STARTCHAR wcircumflex
ENCODING 373
SWIDTH 768 0
DWIDTH 14 0
BBX 14 12 0 0
BITMAP
0300
0680
0000
F11C
6108
6388
3390
3390
34D0
1CE0
1CE0
0840
ENDCHAR
STARTCHAR Ycircumflex
ENCODING 374
SWIDTH 588 0
DWIDTH 12 0
BBX 12 16 0 0
BITMAP
0600
0D00
0000
F070
6020
3040
3040
1880
0D00
0D00
0600
0600
0600
0600
0600
0F00
ENDCHAR
STARTCHAR ycircumflex
ENCODING 375
SWIDTH 506 0
DWIDTH 9 0
BBX 9 16 0 -4
BITMAP
1800
3400
0000
F380
6100
6100
3200
3200
3200
1C00
1C00
0800
0800
1000
F000
6000
ENDCHAR
STARTCHAR Ydieresis
ENCODING 376
SWIDTH 588 0
DWIDTH 12 0
BBX 12 14 0 0
BITMAP
0D80
0D80
0000
F070
6020
3040
1880
0D00
0600
0600
0600
0600
0600
0F00
ENDCHAR
STARTCHAR Zacute
ENCODING 377
SWIDTH 610 0
DWIDTH 12 0
BBX 10 16 1 0
BITMAP
0600
0C00
0000
FF80
C180
8300
0600
0600
0C00
1800
1800
3000
6000
6040
C0C0
FFC0
ENDCHAR
STARTCHAR zacute
ENCODING 378
SWIDTH 480 0
DWIDTH 9 0
BBX 7 12 1 0
BITMAP
0C
18
00
FE
86
0C
18
10
30
60
C2
FE
ENDCHAR
STARTCHAR Zdotaccent
ENCODING 379
SWIDTH 610 0
DWIDTH 12 0
BBX 10 16 1 0
BITMAP
0C00
0C00
0000
FF80
C180
8300
0600
0600
0C00
1800
1800
3000
6000
6040
C0C0
FFC0
ENDCHAR
STARTCHAR zdotaccent
ENCODING 380
SWIDTH 480 0
DWIDTH 9 0
BBX 7 12 1 0
BITMAP
18
18
00
FE
86
0C
18
10
30
60
C2
FE
ENDCHAR
STARTCHAR Zcaron
ENCODING 381
SWIDTH 610 0
DWIDTH 12 0
BBX 10 14 1 0
BITMAP
3400
1800
0000
FF80
C180
8300
0600
0C00
0800
1800
3000
6040
C0C0
FFC0
ENDCHAR
STARTCHAR zcaron
ENCODING 382
SWIDTH 480 0
DWIDTH 9 0
BBX 7 12 1 0
BITMAP
68
30
00
FE
86
0C
18
10
30
60
C2
FE
ENDCHAR
STARTCHAR uni0186
ENCODING 390
SWIDTH 684 0
DWIDTH 13 0
BBX 11 13 1 0
BITMAP
3E00
C180
80C0
00C0
0060
0060
0060
0060
0060
00C0
80C0
C180
7E00
ENDCHAR
STARTCHAR uni0189
ENCODING 393
SWIDTH 785 0
DWIDTH 15 0
BBX 13 13 1 0
BITMAP
FF80
6060
6030
6030
6018
6018
F818
6018
6018
6030
6030
6060
FF80
ENDCHAR
STARTCHAR uni018E
ENCODING 398
SWIDTH 606 0
DWIDTH 11 0
BBX 10 13 1 0
BITMAP
FFC0
C180
8180
0180
0180
2180
3F80
2180
0180
0180
4180
6180
7FC0
ENDCHAR
STARTCHAR florin
ENCODING 402
SWIDTH 530 0
DWIDTH 10 0
BBX 9 16 0 -3
BITMAP
0300
0580
0C00
0C00
0C00
3F80
0C00
0C00
1800
1800
1800
1800
1800
1800
D000
6000
ENDCHAR
STARTCHAR uni0197
ENCODING 407
SWIDTH 349 0
DWIDTH 6 0
BBX 4 13 1 0
BITMAP
F0
60
60
60
60
60
F0
60
60
60
60
60
F0
ENDCHAR
STARTCHAR uni019A
ENCODING 410
SWIDTH 279 0
DWIDTH 6 0
BBX 4 14 1 0
BITMAP
E0
60
60
60
60
60
F0
60
60
60
60
60
60
F0
ENDCHAR
STARTCHAR uni019D
ENCODING 413
SWIDTH 780 0
DWIDTH 14 0
BBX 14 17 -1 -4
BITMAP
381C
1C08
1C08
1608
1708
1308
1188
11C8
10C8
1868
1878
1838
1818
1800
1800
3000
C000
ENDCHAR
STARTCHAR uni019F
ENCODING 415
SWIDTH 762 0
DWIDTH 14 0
BBX 13 13 1 0
BITMAP
0F80
3060
6030
6030
C018
C018
FFF8
C018
C018
6030
6030
3060
0F80
ENDCHAR
STARTCHAR Ohorn
ENCODING 416
SWIDTH 762 0
DWIDTH 14 0
BBX 15 13 1 0
BITMAP
0F84
306E
6036
6034
C018
C018
C018
C018
C018
6030
6030
3060
0F80
ENDCHAR
STARTCHAR ohorn
ENCODING 417
SWIDTH 577 0
DWIDTH 11 0
BBX 11 9 1 0
BITMAP
3E40
63E0
C1E0
C1C0
C180
C180
C180
6300
3E00
ENDCHAR
STARTCHAR uni01A7
ENCODING 423
SWIDTH 541 0
DWIDTH 10 0
BBX 8 13 1 0
BITMAP
7C
C6
83
03
07
1E
78
E0
C0
C0
C1
63
3E
ENDCHAR
STARTCHAR uni01A8
ENCODING 424
SWIDTH 436 0
DWIDTH 8 0
BBX 6 9 1 0
BITMAP
78
CC
04
1C
78
E0
80
CC
78
ENDCHAR
STARTCHAR uni01AE
ENCODING 430
SWIDTH 621 0
DWIDTH 12 0
BBX 12 17 0 -4
BITMAP
FFF0
C630
8610
0600
0600
0600
0600
0600
0600
0600
0600
0600
0600
0600
0600
0300
00C0
ENDCHAR
STARTCHAR Uhorn
ENCODING 431
SWIDTH 791 0
DWIDTH 14 0
BBX 14 13 1 0
BITMAP
F0F8
607C
606C
6068
6070
6060
6060
6060
6060
6060
6060
30C0
0F00
ENDCHAR
STARTCHAR uhorn
ENCODING 432
SWIDTH 606 0
DWIDTH 11 0
BBX 12 9 0 0
BITMAP
E3A0
61F0
61B0
61A0
61C0
6180
6180
7380
3DC0
ENDCHAR
STARTCHAR uni01B5
ENCODING 437
SWIDTH 610 0
DWIDTH 12 0
BBX 10 13 1 0
BITMAP
FF80
C180
8300
0600
0600
0C00
1E00
1800
3000
6000
6040
C0C0
FFC0
ENDCHAR
STARTCHAR uni01B6
ENCODING 438
SWIDTH 480 0
DWIDTH 9 0
BBX 7 9 1 0
BITMAP
FE
86
0C
18
3C
30
60
C2
FE
ENDCHAR
STARTCHAR uni01BB
ENCODING 443
SWIDTH 530 0
DWIDTH 10 0
BBX 8 13 1 0
BITMAP
3C
E6
C3
03
03
03
FF
0C
30
60
C1
FF
FF
ENDCHAR
STARTCHAR uni01BC
ENCODING 444
SWIDTH 530 0
DWIDTH 10 0
BBX 8 13 1 0
BITMAP
FF
FE
80
80
80
FC
86
03
03
03
C3
E6
3C
ENDCHAR
STARTCHAR uni01C0
ENCODING 448
SWIDTH 228 0
DWIDTH 4 0
BBX 1 13 1 0
BITMAP
80
80
80
80
80
80
80
80
80
80
80
80
80
ENDCHAR
STARTCHAR uni01C2
ENCODING 450
SWIDTH 570 0
DWIDTH 11 0
BBX 9 13 1 -2
BITMAP
0800
0800
0800
0800
FF80
0800
0800
0800
FF80
0800
0800
0800
0800
ENDCHAR
STARTCHAR uni01C3
ENCODING 451
SWIDTH 242 0
DWIDTH 5 0
BBX 2 13 1 0
BITMAP
C0
C0
C0
C0
C0
C0
C0
C0
C0
00
00
C0
C0
ENDCHAR
STARTCHAR uni01CD
ENCODING 461
SWIDTH 635 0
DWIDTH 12 0
BBX 12 16 0 0
BITMAP
0D00
0600
0000
0600
0600
0B00
0B00
0B00
1180
1180
3FC0
20C0
20C0
4060
4060
E0F0
ENDCHAR
STARTCHAR uni01CE
ENCODING 462
SWIDTH 523 0
DWIDTH 10 0
BBX 8 12 1 0
BITMAP
34
18
00
7C
C6
06
0E
36
C6
C6
CE
77
ENDCHAR
STARTCHAR uni01CF
ENCODING 463
SWIDTH 349 0
DWIDTH 6 0
BBX 4 16 1 0
BITMAP
D0
60
00
F0
60
60
60
60
60
60
60
60
60
60
60
F0
ENDCHAR
STARTCHAR uni01D0
ENCODING 464
SWIDTH 291 0
DWIDTH 6 0
BBX 4 12 1 0
BITMAP
D0
60
00
E0
60
60
60
60
60
60
60
F0
ENDCHAR
STARTCHAR uni01D1
ENCODING 465
SWIDTH 762 0
DWIDTH 14 0
BBX 13 16 1 0
BITMAP
0680
0300
0000
0F80
3060
6030
6030
C018
C018
C018
C018
C018
6030
6030
3060
0F80
ENDCHAR
STARTCHAR uni01D2
ENCODING 466
SWIDTH 577 0
DWIDTH 11 0
BBX 9 12 1 0
BITMAP
1A00
0C00
0000
3E00
6300
C180
C180
C180
C180
C180
6300
3E00
ENDCHAR
STARTCHAR uni01D3
ENCODING 467
SWIDTH 791 0
DWIDTH 14 0
BBX 12 16 1 0
BITMAP
0D00
0600
0000
F0F0
6060
6060
6060
6060
6060
6060
6060
6060
6060
6060
30C0
0F00
ENDCHAR
STARTCHAR uni01D4
ENCODING 468
SWIDTH 606 0
DWIDTH 11 0
BBX 10 12 0 0
BITMAP
1A00
0C00
0000
E380
6180
6180
6180
6180
6180
6180
7380
3DC0
ENDCHAR
STARTCHAR uni01D5
ENCODING 469
SWIDTH 791 0
DWIDTH 14 0
BBX 12 16 1 0
BITMAP
1F00
0000
1B00
1B00
0000
F0F0
6060
6060
6060
6060
6060
6060
6060
6060
30C0
0F00
ENDCHAR
STARTCHAR uni01D6
ENCODING 470
SWIDTH 606 0
DWIDTH 11 0
BBX 10 14 0 0
BITMAP
3E00
0000
3600
3600
0000
E380
6180
6180
6180
6180
6180
6180
7380
3DC0
ENDCHAR
STARTCHAR uni01D7
ENCODING 471
SWIDTH 791 0
DWIDTH 14 0
BBX 12 17 1 0
BITMAP
0300
0600
0000
1B00
1B00
0000
F0F0
6060
6060
6060
6060
6060
6060
6060
6060
30C0
0F00
ENDCHAR
STARTCHAR uni01D8
ENCODING 472
SWIDTH 606 0
DWIDTH 11 0
BBX 10 15 0 0
BITMAP
0600
0C00
0000
3600
3600
0000
E380
6180
6180
6180
6180
6180
6180
7380
3DC0
ENDCHAR
STARTCHAR uni01D9
ENCODING 473
SWIDTH 791 0
DWIDTH 14 0
BBX 12 17 1 0
BITMAP
0D00
0600
0000
1B00
1B00
0000
F0F0
6060
6060
6060
6060
6060
6060
6060
6060
30C0
0F00
ENDCHAR
STARTCHAR uni01DA
ENCODING 474
SWIDTH 606 0
DWIDTH 11 0
BBX 10 15 0 0
BITMAP
1A00
0C00
0000
3600
3600
0000
E380
6180
6180
6180
6180
6180
6180
7380
3DC0
ENDCHAR
STARTCHAR uni01DB
ENCODING 475
SWIDTH 791 0
DWIDTH 14 0
BBX 12 17 1 0
BITMAP
0C00
0600
0000
1B00
1B00
0000
F0F0
6060
6060
6060
6060
6060
6060
6060
6060
30C0
0F00
ENDCHAR
STARTCHAR uni01DC
ENCODING 476
SWIDTH 606 0
DWIDTH 11 0
BBX 10 15 0 0
BITMAP
1800
0C00
0000
3600
3600
0000
E380
6180
6180
6180
6180
6180
6180
7380
3DC0
ENDCHAR
STARTCHAR uni01DD
ENCODING 477
SWIDTH 514 0
DWIDTH 10 0
BBX 8 9 1 0
BITMAP
3C
46
83
03
03
FF
C3
66
3C
ENDCHAR
STARTCHAR uni01DE
ENCODING 478
SWIDTH 635 0
DWIDTH 12 0
BBX 12 16 0 0
BITMAP
1F00
0000
1B00
1B00
0000
0600
0600
0B00
0B00
1180
1180
3FC0
20C0
4060
4060
E0F0
ENDCHAR
STARTCHAR uni01DF
ENCODING 479
SWIDTH 523 0
DWIDTH 10 0
BBX 8 14 1 0
BITMAP
7C
00
6C
6C
00
7C
C6
06
0E
36
C6
C6
CE
77
ENDCHAR
STARTCHAR uni01E0
ENCODING 480
SWIDTH 635 0
DWIDTH 12 0
BBX 12 18 0 0
BITMAP
0F80
0000
0600
0600
0000
0600
0600
0B00
0B00
0B00
1180
1180
3FC0
20C0
20C0
4060
4060
E0F0
ENDCHAR
STARTCHAR uni01E1
ENCODING 481
SWIDTH 523 0
DWIDTH 10 0
BBX 8 14 1 0
BITMAP
7C
00
18
18
00
7C
C6
06
0E
36
C6
C6
CE
77
ENDCHAR
STARTCHAR uni01E2
ENCODING 482
SWIDTH 876 0
DWIDTH 17 0
BBX 17 15 0 0
BITMAP
01F000
000000
07FF00
01C300
02C100
02C000
04C000
04C200
08FE00
0FC200
10C000
10C000
20C080
20C180
F1FF80
ENDCHAR
STARTCHAR uni01E3
ENCODING 483
SWIDTH 797 0
DWIDTH 15 0
BBX 13 11 1 0
BITMAP
0F80
0000
7DE0
C730
0618
0FF8
3600
C600
C608
CF10
71E0
ENDCHAR
STARTCHAR uni01E4
ENCODING 484
SWIDTH 734 0
DWIDTH 14 0
BBX 13 13 1 0
BITMAP
0FC0
3060
6020
C000
C000
C000
C000
C0F8
C030
C078
6030
3070
0FC0
ENDCHAR
STARTCHAR uni01E5
ENCODING 485
SWIDTH 520 0
DWIDTH 10 0
BBX 10 13 0 -4
BITMAP
1FC0
3300
6180
6180
3300
1E00
3000
3E00
6780
FFC0
C0C0
6180
3F00
ENDCHAR
STARTCHAR Gcaron
ENCODING 486
SWIDTH 734 0
DWIDTH 14 0
BBX 13 16 1 0
BITMAP
0D00
0600
0000
0FC0
3060
6020
C000
C000
C000
C000
C0F8
C030
C030
6030
3070
0FC0
ENDCHAR
STARTCHAR gcaron
ENCODING 487
SWIDTH 520 0
DWIDTH 10 0
BBX 10 16 0 -4
BITMAP
1A00
0C00
0000
1FC0
3300
6180
6180
3300
1E00
3000
3E00
6780
C0C0
C0C0
6180
3F00
ENDCHAR
STARTCHAR uni01E8
ENCODING 488
SWIDTH 658 0
DWIDTH 12 0
BBX 11 16 1 0
BITMAP
1A00
0C00
0000
F1E0
6080
6100
6200
6400
6800
7C00
6E00
6600
6300
6380
61C0
F0E0
ENDCHAR
STARTCHAR uni01E9
ENCODING 489
SWIDTH 524 0
DWIDTH 10 0
BBX 10 17 0 0
BITMAP
6800
3000
0000
E000
6000
6000
6000
6000
6180
6300
6400
7800
6C00
6600
6300
6180
F0C0
ENDCHAR
STARTCHAR uni01EA
ENCODING 490
SWIDTH 762 0
DWIDTH 14 0
BBX 13 17 1 -4
BITMAP
0F80
3060
6030
6030
C018
C018
C018
C018
C018
6030
6030
3060
0F80
0100
0200
0600
0380
ENDCHAR
STARTCHAR uni01EB
ENCODING 491
SWIDTH 577 0
DWIDTH 11 0
BBX 9 13 1 -4
BITMAP
3E00
6300
C180
C180
C180
C180
C180
6300
3E00
0400
0800
1800
0E00
ENDCHAR
STARTCHAR uni01EC
ENCODING 492
SWIDTH 762 0
DWIDTH 14 0
BBX 13 19 1 -4
BITMAP
0F80
0000
0F80
3060
6030
6030
C018
C018
C018
C018
C018
6030
6030
3060
0F80
0100
0200
0600
0380
ENDCHAR
STARTCHAR uni01ED
ENCODING 493
SWIDTH 577 0
DWIDTH 11 0
BBX 9 15 1 -4
BITMAP
3E00
0000
3E00
6300
C180
C180
C180
C180
C180
6300
3E00
0400
0800
1800
0E00
ENDCHAR
STARTCHAR uni01F0
ENCODING 496
SWIDTH 280 0
DWIDTH 6 0
BBX 5 16 -1 -4
BITMAP
68
30
00
38
18
18
18
18
18
18
18
18
18
18
30
C0
ENDCHAR
STARTCHAR uni01F4
ENCODING 500
SWIDTH 734 0
DWIDTH 14 0
BBX 13 16 1 0
BITMAP
0300
0600
0000
0FC0
3060
6020
C000
C000
C000
C000
C0F8
C030
C030
6030
3070
0FC0
ENDCHAR
STARTCHAR uni01F5
ENCODING 501
SWIDTH 520 0
DWIDTH 10 0
BBX 10 16 0 -4
BITMAP
0600
0C00
0000
1FC0
3300
6180
6180
3300
1E00
3000
3E00
6780
C0C0
C0C0
6180
3F00
ENDCHAR
STARTCHAR uni01F8
ENCODING 504
SWIDTH 780 0
DWIDTH 14 0
BBX 12 16 1 0
BITMAP
0C00
0600
0000
E070
7020
7020
5820
5C20
4C20
4620
4720
4320
41A0
41E0
40E0
E060
ENDCHAR
STARTCHAR uni01F9
ENCODING 505
SWIDTH 619 0
DWIDTH 12 0
BBX 10 12 1 0
BITMAP
1800
0C00
0000
EF00
7380
6180
6180
6180
6180
6180
6180
F3C0
ENDCHAR
STARTCHAR Aringacute
ENCODING 506
SWIDTH 627 0
DWIDTH 12 0
BBX 12 17 0 0
BITMAP
0300
0600
0000
0600
0900
0900
0600
0600
0B00
0B00
1180
1180
3FC0
20C0
4060
4060
E0F0
ENDCHAR
STARTCHAR aringacute
ENCODING 507
SWIDTH 523 0
DWIDTH 10 0
BBX 8 17 1 0
BITMAP
0C
18
00
18
24
24
18
00
7C
C6
06
0E
36
C6
C6
CE
77
ENDCHAR
STARTCHAR AEacute
ENCODING 508
SWIDTH 876 0
DWIDTH 17 0
BBX 17 16 0 0
BITMAP
006000
00C000
000000
07FF00
01C300
02C100
02C000
04C000
04C200
08FE00
0FC200
10C000
10C000
20C080
20C180
F1FF80
ENDCHAR
STARTCHAR aeacute
ENCODING 509
SWIDTH 797 0
DWIDTH 15 0
BBX 13 12 1 0
BITMAP
0300
0600
0000
7DE0
C730
0618
0FF8
3600
C600
C608
CF10
71E0
ENDCHAR
STARTCHAR Oslashacute
ENCODING 510
SWIDTH 762 0
DWIDTH 14 0
BBX 13 16 1 0
BITMAP
0180
0300
0000
0FA0
3060
60B0
6130
C118
C218
C418
C418
C818
7030
6030
3060
4F80
ENDCHAR
STARTCHAR oslashacute
ENCODING 511
SWIDTH 577 0
DWIDTH 11 0
BBX 9 14 1 -1
BITMAP
0600
0C00
0000
0100
3E00
6300
C580
C580
C980
D180
D180
6300
3E00
4000
ENDCHAR
STARTCHAR uni0200
ENCODING 512
SWIDTH 635 0
DWIDTH 12 0
BBX 12 16 0 0
BITMAP
1B00
0D80
0000
0600
0600
0B00
0B00
0B00
1180
1180
3FC0
20C0
20C0
4060
4060
E0F0
ENDCHAR
STARTCHAR uni0201
ENCODING 513
SWIDTH 523 0
DWIDTH 10 0
BBX 8 12 1 0
BITMAP
6C
36
00
7C
C6
06
0E
36
C6
C6
CE
77
ENDCHAR
STARTCHAR uni0202
ENCODING 514
SWIDTH 635 0
DWIDTH 12 0
BBX 12 16 0 0
BITMAP
0700
0880
0000
0600
0600
0B00
0B00
0B00
1180
1180
3FC0
20C0
20C0
4060
4060
E0F0
ENDCHAR
STARTCHAR uni0203
ENCODING 515
SWIDTH 523 0
DWIDTH 10 0
BBX 8 12 1 0
BITMAP
38
44
00
7C
C6
06
0E
36
C6
C6
CE
77
ENDCHAR
STARTCHAR uni0204
ENCODING 516
SWIDTH 606 0
DWIDTH 11 0
BBX 10 16 1 0
BITMAP
6C00
3600
0000
FF80
6180
6080
6000
6000
6100
7F00
6100
6000
6000
6040
60C0
FFC0
ENDCHAR
STARTCHAR uni0205
ENCODING 517
SWIDTH 514 0
DWIDTH 10 0
BBX 8 12 1 0
BITMAP
6C
36
00
3C
66
C3
FF
C0
C0
C1
62
3C
ENDCHAR
STARTCHAR uni0206
ENCODING 518
SWIDTH 606 0
DWIDTH 11 0
BBX 10 16 1 0
BITMAP
1C00
2200
0000
FF80
6180
6080
6000
6000
6100
7F00
6100
6000
6000
6040
60C0
FFC0
ENDCHAR
STARTCHAR uni0207
ENCODING 519
SWIDTH 514 0
DWIDTH 10 0
BBX 8 12 1 0
BITMAP
1C
22
00
3C
66
C3
FF
C0
C0
C1
62
3C
ENDCHAR
STARTCHAR uni0208
ENCODING 520
SWIDTH 349 0
DWIDTH 6 0
BBX 6 16 0 0
BITMAP
D8
6C
00
78
30
30
30
30
30
30
30
30
30
30
30
78
ENDCHAR
STARTCHAR uni0209
ENCODING 521
SWIDTH 291 0
DWIDTH 6 0
BBX 6 12 0 0
BITMAP
D8
6C
00
70
30
30
30
30
30
30
30
78
ENDCHAR
STARTCHAR uni020A
ENCODING 522
SWIDTH 349 0
DWIDTH 6 0
BBX 5 16 1 0
BITMAP
70
88
00
F0
60
60
60
60
60
60
60
60
60
60
60
F0
ENDCHAR
STARTCHAR uni020B
ENCODING 523
SWIDTH 291 0
DWIDTH 6 0
BBX 5 12 0 0
BITMAP
70
88
00
70
30
30
30
30
30
30
30
78
ENDCHAR
STARTCHAR uni020C
ENCODING 524
SWIDTH 762 0
DWIDTH 14 0
BBX 13 16 1 0
BITMAP
1B00
0D80
0000
0F80
3060
6030
6030
C018
C018
C018
C018
C018
6030
6030
3060
0F80
ENDCHAR
STARTCHAR uni020D
ENCODING 525
SWIDTH 577 0
DWIDTH 11 0
BBX 9 12 1 0
BITMAP
6C00
3600
0000
3E00
6300
C180
C180
C180
C180
C180
6300
3E00
ENDCHAR
STARTCHAR uni020E
ENCODING 526
SWIDTH 762 0
DWIDTH 14 0
BBX 13 16 1 0
BITMAP
0700
0880
0000
0F80
3060
6030
6030
C018
C018
C018
C018
C018
6030
6030
3060
0F80
ENDCHAR
STARTCHAR uni020F
ENCODING 527
SWIDTH 577 0
DWIDTH 11 0
BBX 9 12 1 0
BITMAP
1C00
2200
0000
3E00
6300
C180
C180
C180
C180
C180
6300
3E00
ENDCHAR
STARTCHAR uni0210
ENCODING 528
SWIDTH 644 0
DWIDTH 12 0
BBX 11 16 1 0
BITMAP
3600
1B00
0000
FF00
6180
60C0
60C0
60C0
6180
7F00
6300
6180
6180
6180
60C0
F0E0
ENDCHAR
STARTCHAR uni0211
ENCODING 529
SWIDTH 389 0
DWIDTH 7 0
BBX 6 12 1 0
BITMAP
D8
6C
00
EC
74
60
60
60
60
60
60
F0
ENDCHAR
STARTCHAR uni0212
ENCODING 530
SWIDTH 644 0
DWIDTH 12 0
BBX 11 16 1 0
BITMAP
0E00
1100
0000
FF00
6180
60C0
60C0
60C0
6180
7F00
6300
6180
6180
6180
60C0
F0E0
ENDCHAR
STARTCHAR uni0213
ENCODING 531
SWIDTH 389 0
DWIDTH 7 0
BBX 6 12 1 0
BITMAP
70
88
00
EC
74
60
60
60
60
60
60
F0
ENDCHAR
STARTCHAR uni0214
ENCODING 532
SWIDTH 791 0
DWIDTH 14 0
BBX 12 16 1 0
BITMAP
1B00
0D80
0000
F0F0
6060
6060
6060
6060
6060
6060
6060
6060
6060
6060
30C0
0F00
ENDCHAR
STARTCHAR uni0215
ENCODING 533
SWIDTH 606 0
DWIDTH 11 0
BBX 10 12 0 0
BITMAP
3600
1B00
0000
E380
6180
6180
6180
6180
6180
6180
7380
3DC0
ENDCHAR
STARTCHAR uni0216
ENCODING 534
SWIDTH 791 0
DWIDTH 14 0
BBX 12 16 1 0
BITMAP
0700
0880
0000
F0F0
6060
6060
6060
6060
6060
6060
6060
6060
6060
6060
30C0
0F00
ENDCHAR
STARTCHAR uni0217
ENCODING 535
SWIDTH 606 0
DWIDTH 11 0
BBX 10 12 0 0
BITMAP
1C00
2200
0000
E380
6180
6180
6180
6180
6180
6180
7380
3DC0
ENDCHAR
STARTCHAR Scommaaccent
ENCODING 536
SWIDTH 541 0
DWIDTH 10 0
BBX 8 19 1 -6
BITMAP
3E
63
C1
C0
E0
78
1E
07
03
03
83
C6
7C
00
08
1C
0C
08
10
ENDCHAR
STARTCHAR scommaaccent
ENCODING 537
SWIDTH 436 0
DWIDTH 8 0
BBX 6 15 1 -6
BITMAP
78
CC
80
E0
78
1C
04
CC
78
00
10
38
18
10
20
ENDCHAR
STARTCHAR Tcommaaccent
ENCODING 538
SWIDTH 621 0
DWIDTH 12 0
BBX 12 19 0 -6
BITMAP
FFF0
C630
8610
0600
0600
0600
0600
0600
0600
0600
0600
0600
1F80
0000
0200
0700
0300
0200
0400
ENDCHAR
STARTCHAR tcommaaccent
ENCODING 539
SWIDTH 344 0
DWIDTH 6 0
BBX 5 17 1 -6
BITMAP
20
60
F8
60
60
60
60
60
60
60
38
00
20
70
30
20
40
ENDCHAR
STARTCHAR uni021E
ENCODING 542
SWIDTH 798 0
DWIDTH 15 0
BBX 13 16 1 0
BITMAP
0680
0300
0000
F078
6030
6030
6030
6030
6030
7FF0
6030
6030
6030
6030
6030
F078
ENDCHAR
STARTCHAR uni021F
ENCODING 543
SWIDTH 607 0
DWIDTH 12 0
BBX 10 17 1 0
BITMAP
6800
3000
0000
E000
6000
6000
6000
6000
6F00
7380
6180
6180
6180
6180
6180
6180
F3C0
ENDCHAR
STARTCHAR uni0226
ENCODING 550
SWIDTH 635 0
DWIDTH 12 0
BBX 12 16 0 0
BITMAP
0600
0600
0000
0600
0600
0B00
0B00
0B00
1180
1180
3FC0
20C0
20C0
4060
4060
E0F0
ENDCHAR
STARTCHAR uni0227
ENCODING 551
SWIDTH 523 0
DWIDTH 10 0
BBX 8 12 1 0
BITMAP
18
18
00
7C
C6
06
0E
36
C6
C6
CE
77
ENDCHAR
STARTCHAR uni0228
ENCODING 552
SWIDTH 606 0
DWIDTH 11 0
BBX 10 17 1 -4
BITMAP
FF80
6180
6080
6000
6000
6100
7F00
6100
6000
6000
6040
60C0
FFC0
0800
0C00
0400
1800
ENDCHAR
STARTCHAR uni0229
ENCODING 553
SWIDTH 514 0
DWIDTH 10 0
BBX 8 13 1 -4
BITMAP
3C
66
C3
FF
C0
C0
C1
62
3C
10
18
08
30
ENDCHAR
STARTCHAR uni022A
ENCODING 554
SWIDTH 762 0
DWIDTH 15 0
BBX 13 16 1 0
BITMAP
0F80
0000
0D80
0D80
0000
0F80
3060
6030
C018
C018
C018
C018
C018
6030
3060
0F80
ENDCHAR
STARTCHAR uni022B
ENCODING 555
SWIDTH 577 0
DWIDTH 11 0
BBX 9 14 1 0
BITMAP
3E00
0000
3600
3600
0000
3E00
6300
C180
C180
C180
C180
C180
6300
3E00
ENDCHAR
STARTCHAR uni022C
ENCODING 556
SWIDTH 762 0
DWIDTH 15 0
BBX 13 16 1 0
BITMAP
0F80
0000
0E40
1380
0000
0F80
3060
6030
C018
C018
C018
C018
C018
6030
3060
0F80
ENDCHAR
STARTCHAR uni022D
ENCODING 557
SWIDTH 577 0
DWIDTH 11 0
BBX 9 14 1 0
BITMAP
3E00
0000
3900
4E00
0000
3E00
6300
C180
C180
C180
C180
C180
6300
3E00
ENDCHAR
STARTCHAR uni022E
ENCODING 558
SWIDTH 762 0
DWIDTH 14 0
BBX 13 16 1 0
BITMAP
0300
0300
0000
0F80
3060
6030
6030
C018
C018
C018
C018
C018
6030
6030
3060
0F80
ENDCHAR
STARTCHAR uni022F
ENCODING 559
SWIDTH 577 0
DWIDTH 11 0
BBX 9 12 1 0
BITMAP
0C00
0C00
0000
3E00
6300
C180
C180
C180
C180
C180
6300
3E00
ENDCHAR
STARTCHAR uni0230
ENCODING 560
SWIDTH 762 0
DWIDTH 14 0
BBX 13 18 1 0
BITMAP
0F80
0000
0300
0300
0000
0F80
3060
6030
6030
C018
C018
C018
C018
C018
6030
6030
3060
0F80
ENDCHAR
STARTCHAR uni0231
ENCODING 561
SWIDTH 577 0
DWIDTH 11 0
BBX 9 14 1 0
BITMAP
3E00
0000
0C00
0C00
0000
3E00
6300
C180
C180
C180
C180
C180
6300
3E00
ENDCHAR
STARTCHAR uni0232
ENCODING 562
SWIDTH 588 0
DWIDTH 12 0
BBX 12 15 0 0
BITMAP
1F00
0000
F070
6020
3040
3040
1880
0D00
0D00
0600
0600
0600
0600
0600
0F00
ENDCHAR
STARTCHAR uni0233
ENCODING 563
SWIDTH 506 0
DWIDTH 9 0
BBX 9 15 0 -4
BITMAP
3E00
0000
F380
6100
6100
3200
3200
3200
1C00
1C00
0800
0800
1000
F000
6000
ENDCHAR
STARTCHAR uni0250
ENCODING 592
SWIDTH 523 0
DWIDTH 10 0
BBX 8 9 1 0
BITMAP
EE
73
63
63
6C
70
60
63
3E
ENDCHAR
STARTCHAR uni0254
ENCODING 596
SWIDTH 496 0
DWIDTH 9 0
BBX 8 9 1 0
BITMAP
3C
66
03
03
03
03
83
46
3C
ENDCHAR
STARTCHAR uni0258
ENCODING 600
SWIDTH 514 0
DWIDTH 10 0
BBX 8 9 1 0
BITMAP
3C
66
C3
FF
03
03
83
46
3C
ENDCHAR
STARTCHAR uni0259
ENCODING 601
SWIDTH 514 0
DWIDTH 10 0
BBX 8 9 1 0
BITMAP
3C
46
83
03
03
FF
C3
66
3C
ENDCHAR
STARTCHAR uni025F
ENCODING 607
SWIDTH 319 0
DWIDTH 6 0
BBX 6 14 1 -5
BITMAP
3C
18
18
18
18
18
18
18
7C
18
18
18
90
E0
ENDCHAR
STARTCHAR uni0265
ENCODING 613
SWIDTH 607 0
DWIDTH 12 0
BBX 10 14 1 -5
BITMAP
F3C0
6180
6180
6180
6180
6180
6180
7380
3D80
0180
0180
0180
0180
01C0
ENDCHAR
STARTCHAR uni0275
ENCODING 629
SWIDTH 577 0
DWIDTH 11 0
BBX 9 9 1 0
BITMAP
3E00
6300
C180
C180
FF80
C180
C180
6300
3E00
ENDCHAR
STARTCHAR uni0279
ENCODING 633
SWIDTH 389 0
DWIDTH 7 0
BBX 6 9 1 0
BITMAP
3C
18
18
18
18
18
18
B8
DC
ENDCHAR
STARTCHAR uni0287
ENCODING 647
SWIDTH 344 0
DWIDTH 6 0
BBX 5 11 1 0
BITMAP
E0
30
30
30
30
30
30
30
F8
30
20
ENDCHAR
STARTCHAR uni0288
ENCODING 648
SWIDTH 344 0
DWIDTH 6 0
BBX 6 15 1 -4
BITMAP
20
60
F8
60
60
60
60
60
60
60
60
60
60
30
0C
ENDCHAR
STARTCHAR uni0289
ENCODING 649
SWIDTH 606 0
DWIDTH 11 0
BBX 10 9 0 0
BITMAP
E380
6180
6180
6180
FFC0
6180
6180
7380
3DC0
ENDCHAR
STARTCHAR uni028C
ENCODING 652
SWIDTH 504 0
DWIDTH 9 0
BBX 9 9 0 0
BITMAP
0800
1C00
1C00
2600
2600
2600
4300
4300
E780
ENDCHAR
STARTCHAR uni028D
ENCODING 653
SWIDTH 768 0
DWIDTH 14 0
BBX 14 9 0 0
BITMAP
0840
1CE0
1CE0
2CB0
2730
2730
4718
4218
E23C
ENDCHAR
STARTCHAR uni028E
ENCODING 654
SWIDTH 506 0
DWIDTH 9 0
BBX 9 13 0 0
BITMAP
0300
0780
0400
0800
0800
1C00
1C00
2600
2600
2600
4300
4300
E780
ENDCHAR
STARTCHAR uni029E
ENCODING 670
SWIDTH 524 0
DWIDTH 10 0
BBX 10 14 0 -5
BITMAP
C3C0
6180
3180
1980
0D80
0780
0980
3180
6180
0180
0180
0180
0180
01C0
ENDCHAR
STARTCHAR uni02BB
ENCODING 699
SWIDTH 278 0
DWIDTH 5 0
BBX 3 5 1 8
BITMAP
20
40
C0
E0
40
ENDCHAR
STARTCHAR afii57929
ENCODING 700
SWIDTH 278 0
DWIDTH 5 0
BBX 3 5 1 8
BITMAP
40
E0
60
40
80
ENDCHAR
STARTCHAR afii64937
ENCODING 701
SWIDTH 278 0
DWIDTH 5 0
BBX 3 5 1 8
BITMAP
40
E0
C0
40
20
ENDCHAR
STARTCHAR circumflex
ENCODING 710
SWIDTH 400 0
DWIDTH 7 0
BBX 4 2 1 10
BITMAP
60
D0
ENDCHAR
STARTCHAR caron
ENCODING 711
SWIDTH 400 0
DWIDTH 7 0
BBX 4 2 1 10
BITMAP
D0
60
ENDCHAR
STARTCHAR uni02C8
ENCODING 712
SWIDTH 278 0
DWIDTH 5 0
BBX 2 5 1 8
BITMAP
C0
C0
C0
80
80
ENDCHAR
STARTCHAR macron
ENCODING 713
SWIDTH 400 0
DWIDTH 7 0
BBX 5 1 1 10
BITMAP
F8
ENDCHAR
STARTCHAR uni02CA
ENCODING 714
SWIDTH 400 0
DWIDTH 7 0
BBX 3 2 1 10
BITMAP
60
C0
ENDCHAR
STARTCHAR uni02CB
ENCODING 715
SWIDTH 400 0
DWIDTH 7 0
BBX 3 2 1 10
BITMAP
C0
60
ENDCHAR
STARTCHAR uni02CD
ENCODING 717
SWIDTH 400 0
DWIDTH 7 0
BBX 5 1 1 -2
BITMAP
F8
ENDCHAR
STARTCHAR uni02CE
ENCODING 718
SWIDTH 400 0
DWIDTH 7 0
BBX 3 2 1 -3
BITMAP
C0
60
ENDCHAR
STARTCHAR uni02CF
ENCODING 719
SWIDTH 400 0
DWIDTH 7 0
BBX 3 2 1 -3
BITMAP
60
C0
ENDCHAR
STARTCHAR breve
ENCODING 728
SWIDTH 400 0
DWIDTH 7 0
BBX 5 2 1 10
BITMAP
88
70
ENDCHAR
STARTCHAR dotaccent
ENCODING 729
SWIDTH 400 0
DWIDTH 7 0
BBX 2 2 2 10
BITMAP
C0
C0
ENDCHAR
STARTCHAR ring
ENCODING 730
SWIDTH 400 0
DWIDTH 7 0
BBX 4 4 1 10
BITMAP
60
90
90
60
ENDCHAR
STARTCHAR ogonek
ENCODING 731
SWIDTH 400 0
DWIDTH 7 0
BBX 4 4 1 -4
BITMAP
20
40
C0
70
ENDCHAR
STARTCHAR tilde
ENCODING 732
SWIDTH 400 0
DWIDTH 7 0
BBX 7 2 0 10
BITMAP
72
9C
ENDCHAR
STARTCHAR hungarumlaut
ENCODING 733
SWIDTH 400 0
DWIDTH 7 0
BBX 6 2 0 10
BITMAP
6C
D8
ENDCHAR
STARTCHAR uni02EE
ENCODING 750
SWIDTH 458 0
DWIDTH 8 0
BBX 6 5 1 8
BITMAP
48
EC
6C
48
90
ENDCHAR
STARTCHAR uni037E
ENCODING 894
SWIDTH 265 0
DWIDTH 5 0
BBX 3 11 0 -2
BITMAP
60
60
00
00
00
00
40
E0
60
40
80
ENDCHAR
STARTCHAR tonos
ENCODING 900
SWIDTH 400 0
DWIDTH 7 0
BBX 3 2 1 10
BITMAP
60
C0
ENDCHAR
STARTCHAR dieresistonos
ENCODING 901
SWIDTH 400 0
DWIDTH 7 0
BBX 5 5 1 10
BITMAP
30
60
00
D8
D8
ENDCHAR
STARTCHAR anoteleia
ENCODING 903
SWIDTH 265 0
DWIDTH 5 0
BBX 2 2 1 4
BITMAP
C0
C0
ENDCHAR
STARTCHAR mu
ENCODING 956
SWIDTH 606 0
DWIDTH 11 0
BBX 10 13 0 -4
BITMAP
E380
6180
6180
6180
6180
6180
6180
7380
7DC0
4000
4000
6000
6000
ENDCHAR
STARTCHAR uni1E00
ENCODING 7680
SWIDTH 635 0
DWIDTH 12 0
BBX 12 18 0 -5
BITMAP
0600
0600
0B00
0B00
0B00
1180
1180
3FC0
20C0
20C0
4060
4060
E0F0
0000
0300
0480
0480
0300
ENDCHAR
STARTCHAR uni1E01
ENCODING 7681
SWIDTH 523 0
DWIDTH 10 0
BBX 8 14 1 -5
BITMAP
7C
C6
06
0E
36
C6
C6
CE
77
00
18
24
24
18
ENDCHAR
STARTCHAR uni1E02
ENCODING 7682
SWIDTH 646 0
DWIDTH 12 0
BBX 10 16 1 0
BITMAP
0C00
0C00
0000
FF00
6180
60C0
60C0
60C0
6180
7F00
6180
60C0
60C0
60C0
6180
FF00
ENDCHAR
STARTCHAR uni1E03
ENCODING 7683
SWIDTH 598 0
DWIDTH 11 0
BBX 10 17 0 0
BITMAP
3000
3000
0000
E000
6000
6000
6000
6000
6F00
7180
60C0
60C0
60C0
60C0
60C0
7180
4F00
ENDCHAR
STARTCHAR uni1E04
ENCODING 7684
SWIDTH 646 0
DWIDTH 12 0
BBX 10 16 1 -3
BITMAP
FF00
6180
60C0
60C0
60C0
6180
7F00
6180
60C0
60C0
60C0
6180
FF00
0000
0C00
0C00
ENDCHAR
STARTCHAR uni1E05
ENCODING 7685
SWIDTH 598 0
DWIDTH 11 0
BBX 10 17 0 -3
BITMAP
E000
6000
6000
6000
6000
6F00
7180
60C0
60C0
60C0
60C0
60C0
7180
4F00
0000
0C00
0C00
ENDCHAR
STARTCHAR uni1E06
ENCODING 7686
SWIDTH 646 0
DWIDTH 12 0
BBX 10 15 1 -2
BITMAP
FF00
6180
60C0
60C0
60C0
6180
7F00
6180
60C0
60C0
60C0
6180
FF00
0000
3E00
ENDCHAR
STARTCHAR uni1E07
ENCODING 7687
SWIDTH 598 0
DWIDTH 11 0
BBX 10 16 0 -2
BITMAP
E000
6000
6000
6000
6000
6F00
7180
60C0
60C0
60C0
60C0
60C0
7180
4F00
0000
1F00
ENDCHAR
STARTCHAR uni1E08
ENCODING 7688
SWIDTH 680 0
DWIDTH 13 0
BBX 11 20 1 -4
BITMAP
0600
0C00
0000
0FC0
3060
6020
6000
C000
C000
C000
C000
C000
6000
6020
3060
0F80
0200
0300
0100
0600
ENDCHAR
STARTCHAR uni1E09
ENCODING 7689
SWIDTH 496 0
DWIDTH 9 0
BBX 8 16 1 -4
BITMAP
18
30
00
3C
66
C0
C0
C0
C0
C1
62
3C
08
0C
04
18
ENDCHAR
STARTCHAR uni1E0A
ENCODING 7690
SWIDTH 779 0
DWIDTH 15 0
BBX 13 16 1 0
BITMAP
0600
0600
0000
FF80
6060
6030
6030
6018
6018
6018
6018
6018
6030
6030
6060
FF80
ENDCHAR
STARTCHAR uni1E0B
ENCODING 7691
SWIDTH 598 0
DWIDTH 12 0
BBX 10 17 1 0
BITMAP
0300
0300
0000
0380
0180
0180
0180
0180
3D80
6380
C180
C180
C180
C180
C180
6380
3DC0
ENDCHAR
STARTCHAR uni1E0C
ENCODING 7692
SWIDTH 779 0
DWIDTH 15 0
BBX 13 16 1 -3
BITMAP
FF80
6060
6030
6030
6018
6018
6018
6018
6018
6030
6030
6060
FF80
0000
0600
0600
ENDCHAR
STARTCHAR uni1E0D
ENCODING 7693
SWIDTH 598 0
DWIDTH 12 0
BBX 10 17 1 -3
BITMAP
0380
0180
0180
0180
0180
3D80
6380
C180
C180
C180
C180
C180
6380
3DC0
0000
0C00
0C00
ENDCHAR
STARTCHAR uni1E0E
ENCODING 7694
SWIDTH 779 0
DWIDTH 15 0
BBX 13 15 1 -2
BITMAP
FF80
6060
6030
6030
6018
6018
6018
6018
6018
6030
6030
6060
FF80
0000
1F00
ENDCHAR
STARTCHAR uni1E0F
ENCODING 7695
SWIDTH 598 0
DWIDTH 12 0
BBX 10 16 1 -2
BITMAP
0380
0180
0180
0180
0180
3D80
6380
C180
C180
C180
C180
C180
6380
3DC0
0000
1F00
ENDCHAR
STARTCHAR uni1E10
ENCODING 7696
SWIDTH 779 0
DWIDTH 15 0
BBX 13 17 1 -4
BITMAP
FF80
6060
6030
6030
6018
6018
6018
6018
6018
6030
6030
6060
FF80
0400
0600
0200
0C00
ENDCHAR
STARTCHAR uni1E11
ENCODING 7697
SWIDTH 598 0
DWIDTH 12 0
BBX 10 18 1 -4
BITMAP
0380
0180
0180
0180
0180
3D80
6380
C180
C180
C180
C180
C180
6380
3DC0
0800
0C00
0400
1800
ENDCHAR
STARTCHAR uni1E12
ENCODING 7698
SWIDTH 779 0
DWIDTH 15 0
BBX 13 16 1 -3
BITMAP
FF80
6060
6030
6030
6018
6018
6018
6018
6018
6030
6030
6060
FF80
0000
0600
0D00
ENDCHAR
STARTCHAR uni1E13
ENCODING 7699
SWIDTH 598 0
DWIDTH 12 0
BBX 10 17 1 -3
BITMAP
0380
0180
0180
0180
0180
3D80
6380
C180
C180
C180
C180
C180
6380
3DC0
0000
0C00
1A00
ENDCHAR
STARTCHAR uni1E14
ENCODING 7700
SWIDTH 606 0
DWIDTH 11 0
BBX 10 18 1 0
BITMAP
1800
0C00
0000
3E00
0000
FF80
6180
6080
6000
6000
6100
7F00
6100
6000
6000
6040
60C0
FFC0
ENDCHAR
STARTCHAR uni1E15
ENCODING 7701
SWIDTH 514 0
DWIDTH 10 0
BBX 8 14 1 0
BITMAP
30
18
00
3E
00
3C
66
C3
FF
C0
C0
C1
62
3C
ENDCHAR
STARTCHAR uni1E16
ENCODING 7702
SWIDTH 606 0
DWIDTH 11 0
BBX 10 18 1 0
BITMAP
0600
0C00
0000
3E00
0000
FF80
6180
6080
6000
6000
6100
7F00
6100
6000
6000
6040
60C0
FFC0
ENDCHAR
STARTCHAR uni1E17
ENCODING 7703
SWIDTH 514 0
DWIDTH 10 0
BBX 8 14 1 0
BITMAP
0C
18
00
3E
00
3C
66
C3
FF
C0
C0
C1
62
3C
ENDCHAR
STARTCHAR uni1E18
ENCODING 7704
SWIDTH 606 0
DWIDTH 11 0
BBX 10 16 1 -3
BITMAP
FF80
6180
6080
6000
6000
6100
7F00
6100
6000
6000
6040
60C0
FFC0
0000
0C00
1A00
ENDCHAR
STARTCHAR uni1E19
ENCODING 7705
SWIDTH 514 0
DWIDTH 10 0
BBX 8 12 1 -3
BITMAP
3C
66
C3
FF
C0
C0
C1
62
3C
00
18
34
ENDCHAR
STARTCHAR uni1E1A
ENCODING 7706
SWIDTH 606 0
DWIDTH 11 0
BBX 10 16 1 -3
BITMAP
FF80
6180
6080
6000
6000
6100
7F00
6100
6000
6000
6040
60C0
FFC0
0000
3900
4E00
ENDCHAR
STARTCHAR uni1E1B
ENCODING 7707
SWIDTH 514 0
DWIDTH 10 0
BBX 8 12 1 -3
BITMAP
3C
66
C3
FF
C0
C0
C1
62
3C
00
72
9C
ENDCHAR
STARTCHAR uni1E1C
ENCODING 7708
SWIDTH 606 0
DWIDTH 11 0
BBX 10 20 1 -4
BITMAP
2200
1C00
0000
FF80
6180
6080
6000
6000
6100
7F00
6100
6000
6000
6040
60C0
FFC0
0800
0C00
0400
1800
ENDCHAR
STARTCHAR uni1E1D
ENCODING 7709
SWIDTH 514 0
DWIDTH 10 0
BBX 8 16 1 -4
BITMAP
22
1C
00
3C
66
C3
FF
C0
C0
C1
62
3C
10
18
08
30
ENDCHAR
STARTCHAR uni1E1E
ENCODING 7710
SWIDTH 580 0
DWIDTH 11 0
BBX 9 16 1 0
BITMAP
1800
1800
0000
FF80
6180
6080
6000
6000
6100
7F00
6100
6000
6000
6000
6000
F000
ENDCHAR
STARTCHAR uni1E1F
ENCODING 7711
SWIDTH 319 0
DWIDTH 6 0
BBX 6 17 1 0
BITMAP
30
30
00
1C
24
60
60
60
F8
60
60
60
60
60
60
60
F0
ENDCHAR
STARTCHAR uni1E20
ENCODING 7712
SWIDTH 734 0
DWIDTH 14 0
BBX 13 15 1 0
BITMAP
1F00
0000
0FC0
3060
6020
C000
C000
C000
C000
C0F8
C030
C030
6030
3070
0FC0
ENDCHAR
STARTCHAR uni1E21
ENCODING 7713
SWIDTH 520 0
DWIDTH 10 0
BBX 10 15 0 -4
BITMAP
1F00
0000
1FC0
3300
6180
6180
3300
1E00
3000
3E00
6780
C0C0
C0C0
6180
3F00
ENDCHAR
STARTCHAR uni1E22
ENCODING 7714
SWIDTH 798 0
DWIDTH 15 0
BBX 13 16 1 0
BITMAP
0300
0300
0000
F078
6030
6030
6030
6030
6030
7FF0
6030
6030
6030
6030
6030
F078
ENDCHAR
STARTCHAR uni1E23
ENCODING 7715
SWIDTH 607 0
DWIDTH 12 0
BBX 10 17 1 0
BITMAP
3000
3000
0000
E000
6000
6000
6000
6000
6F00
7380
6180
6180
6180
6180
6180
6180
F3C0
ENDCHAR
STARTCHAR uni1E24
ENCODING 7716
SWIDTH 798 0
DWIDTH 15 0
BBX 13 16 1 -3
BITMAP
F078
6030
6030
6030
6030
6030
7FF0
6030
6030
6030
6030
6030
F078
0000
0300
0300
ENDCHAR
STARTCHAR uni1E25
ENCODING 7717
SWIDTH 607 0
DWIDTH 12 0
BBX 10 17 1 -3
BITMAP
E000
6000
6000
6000
6000
6F00
7380
6180
6180
6180
6180
6180
6180
F3C0
0000
0C00
0C00
ENDCHAR
STARTCHAR uni1E26
ENCODING 7718
SWIDTH 798 0
DWIDTH 15 0
BBX 13 16 1 0
BITMAP
0D80
0D80
0000
F078
6030
6030
6030
6030
6030
7FF0
6030
6030
6030
6030
6030
F078
ENDCHAR
STARTCHAR uni1E27
ENCODING 7719
SWIDTH 607 0
DWIDTH 12 0
BBX 10 17 1 0
BITMAP
D800
D800
0000
E000
6000
6000
6000
6000
6F00
7380
6180
6180
6180
6180
6180
6180
F3C0
ENDCHAR
STARTCHAR uni1E28
ENCODING 7720
SWIDTH 798 0
DWIDTH 15 0
BBX 13 17 1 -4
BITMAP
F078
6030
6030
6030
6030
6030
7FF0
6030
6030
6030
6030
6030
F078
0200
0300
0100
0600
ENDCHAR
STARTCHAR uni1E29
ENCODING 7721
SWIDTH 607 0
DWIDTH 12 0
BBX 10 18 1 -4
BITMAP
E000
6000
6000
6000
6000
6F00
7380
6180
6180
6180
6180
6180
6180
F3C0
0800
0C00
0400
1800
ENDCHAR
STARTCHAR uni1E2A
ENCODING 7722
SWIDTH 798 0
DWIDTH 15 0
BBX 13 16 1 -3
BITMAP
F078
6030
6030
6030
6030
6030
7FF0
6030
6030
6030
6030
6030
F078
0000
0880
0700
ENDCHAR
STARTCHAR uni1E2B
ENCODING 7723
SWIDTH 607 0
DWIDTH 12 0
BBX 10 17 1 -3
BITMAP
E000
6000
6000
6000
6000
6F00
7380
6180
6180
6180
6180
6180
6180
F3C0
0000
1100
0E00
ENDCHAR
STARTCHAR uni1E2C
ENCODING 7724
SWIDTH 349 0
DWIDTH 6 0
BBX 7 16 0 -3
BITMAP
78
30
30
30
30
30
30
30
30
30
30
30
78
00
72
9C
ENDCHAR
STARTCHAR uni1E2D
ENCODING 7725
SWIDTH 291 0
DWIDTH 6 0
BBX 7 15 0 -3
BITMAP
30
30
00
70
30
30
30
30
30
30
30
78
00
72
9C
ENDCHAR
STARTCHAR uni1E2E
ENCODING 7726
SWIDTH 349 0
DWIDTH 6 0
BBX 5 17 0 0
BITMAP
30
60
00
D8
D8
00
78
30
30
30
30
30
30
30
30
30
78
ENDCHAR
STARTCHAR uni1E2F
ENCODING 7727
SWIDTH 291 0
DWIDTH 6 0
BBX 5 15 0 0
BITMAP
30
60
00
D8
D8
00
70
30
30
30
30
30
30
30
78
ENDCHAR
STARTCHAR uni1E30
ENCODING 7728
SWIDTH 658 0
DWIDTH 12 0
BBX 11 16 1 0
BITMAP
0600
0C00
0000
F1E0
6080
6100
6200
6400
6800
7C00
6E00
6600
6300
6380
61C0
F0E0
ENDCHAR
STARTCHAR uni1E31
ENCODING 7729
SWIDTH 524 0
DWIDTH 10 0
BBX 10 17 0 0
BITMAP
1800
3000
0000
E000
6000
6000
6000
6000
6180
6300
6400
7800
6C00
6600
6300
6180
F0C0
ENDCHAR
STARTCHAR uni1E32
ENCODING 7730
SWIDTH 658 0
DWIDTH 12 0
BBX 11 16 1 -3
BITMAP
F1E0
6080
6100
6200
6400
6800
7C00
6E00
6600
6300
6380
61C0
F0E0
0000
0C00
0C00
ENDCHAR
STARTCHAR uni1E33
ENCODING 7731
SWIDTH 524 0
DWIDTH 10 0
BBX 10 17 0 -3
BITMAP
E000
6000
6000
6000
6000
6180
6300
6400
7800
6C00
6600
6300
6180
F0C0
0000
0C00
0C00
ENDCHAR
STARTCHAR uni1E34
ENCODING 7732
SWIDTH 658 0
DWIDTH 12 0
BBX 11 15 1 -2
BITMAP
F1E0
6080
6100
6200
6400
6800
7C00
6E00
6600
6300
6380
61C0
F0E0
0000
1F00
ENDCHAR
STARTCHAR uni1E35
ENCODING 7733
SWIDTH 524 0
DWIDTH 10 0
BBX 10 16 0 -2
BITMAP
E000
6000
6000
6000
6000
6180
6300
6400
7800
6C00
6600
6300
6180
F0C0
0000
3E00
ENDCHAR
STARTCHAR uni1E36
ENCODING 7734
SWIDTH 568 0
DWIDTH 11 0
BBX 10 16 1 -3
BITMAP
F000
6000
6000
6000
6000
6000
6000
6000
6000
6000
6040
60C0
FFC0
0000
0C00
0C00
ENDCHAR
STARTCHAR uni1E37
ENCODING 7735
SWIDTH 279 0
DWIDTH 6 0
BBX 4 17 1 -3
BITMAP
E0
60
60
60
60
60
60
60
60
60
60
60
60
F0
00
60
60
ENDCHAR
STARTCHAR uni1E38
ENCODING 7736
SWIDTH 568 0
DWIDTH 11 0
BBX 10 18 1 -3
BITMAP
7C00
0000
F000
6000
6000
6000
6000
6000
6000
6000
6000
6000
6040
60C0
FFC0
0000
0C00
0C00
ENDCHAR
STARTCHAR uni1E39
ENCODING 7737
SWIDTH 279 0
DWIDTH 6 0
BBX 5 19 0 -3
BITMAP
F8
00
70
30
30
30
30
30
30
30
30
30
30
30
30
78
00
30
30
ENDCHAR
STARTCHAR uni1E3A
ENCODING 7738
SWIDTH 568 0
DWIDTH 11 0
BBX 10 15 1 -2
BITMAP
F000
6000
6000
6000
6000
6000
6000
6000
6000
6000
6040
60C0
FFC0
0000
3E00
ENDCHAR
STARTCHAR uni1E3B
ENCODING 7739
SWIDTH 279 0
DWIDTH 6 0
BBX 5 16 1 -2
BITMAP
E0
60
60
60
60
60
60
60
60
60
60
60
60
F0
00
F8
ENDCHAR
STARTCHAR uni1E3C
ENCODING 7740
SWIDTH 568 0
DWIDTH 11 0
BBX 10 16 1 -3
BITMAP
F000
6000
6000
6000
6000
6000
6000
6000
6000
6000
6040
60C0
FFC0
0000
0C00
1A00
ENDCHAR
STARTCHAR uni1E3D
ENCODING 7741
SWIDTH 279 0
DWIDTH 6 0
BBX 4 17 1 -3
BITMAP
E0
60
60
60
60
60
60
60
60
60
60
60
60
F0
00
60
D0
ENDCHAR
STARTCHAR uni1E3E
ENCODING 7742
SWIDTH 944 0
DWIDTH 18 0
BBX 16 16 1 0
BITMAP
00C0
0180
0000
E007
6006
700E
700E
5816
5816
4C26
4C26
4646
4646
4386
4386
E10F
ENDCHAR
STARTCHAR uni1E3F
ENCODING 7743
SWIDTH 923 0
DWIDTH 18 0
BBX 16 12 1 0
BITMAP
00C0
0180
0000
EF3C
73CE
6186
6186
6186
6186
6186
6186
F3CF
ENDCHAR
STARTCHAR uni1E40
ENCODING 7744
SWIDTH 944 0
DWIDTH 18 0
BBX 16 16 1 0
BITMAP
0180
0180
0000
E007
6006
700E
700E
5816
5816
4C26
4C26
4646
4646
4386
4386
E10F
ENDCHAR
STARTCHAR uni1E41
ENCODING 7745
SWIDTH 923 0
DWIDTH 18 0
BBX 16 12 1 0
BITMAP
0180
0180
0000
EF3C
73CE
6186
6186
6186
6186
6186
6186
F3CF
ENDCHAR
STARTCHAR uni1E42
ENCODING 7746
SWIDTH 944 0
DWIDTH 18 0
BBX 16 16 1 -3
BITMAP
E007
6006
700E
700E
5816
5816
4C26
4C26
4646
4646
4386
4386
E10F
0000
0180
0180
ENDCHAR
STARTCHAR uni1E43
ENCODING 7747
SWIDTH 923 0
DWIDTH 18 0
BBX 16 12 1 -3
BITMAP
EF3C
73CE
6186
6186
6186
6186
6186
6186
F3CF
0000
0180
0180
ENDCHAR
STARTCHAR uni1E44
ENCODING 7748
SWIDTH 780 0
DWIDTH 14 0
BBX 12 16 1 0
BITMAP
0C00
0C00
0000
E070
7020
7020
5820
5C20
4C20
4620
4720
4320
41A0
41E0
40E0
E060
ENDCHAR
STARTCHAR uni1E45
ENCODING 7749
SWIDTH 619 0
DWIDTH 12 0
BBX 10 12 1 0
BITMAP
0C00
0C00
0000
EF00
7380
6180
6180
6180
6180
6180
6180
F3C0
ENDCHAR
STARTCHAR uni1E46
ENCODING 7750
SWIDTH 780 0
DWIDTH 14 0
BBX 12 16 1 -3
BITMAP
E070
7020
7020
5820
5C20
4C20
4620
4720
4320
41A0
41E0
40E0
E060
0000
0600
0600
ENDCHAR
STARTCHAR uni1E47
ENCODING 7751
SWIDTH 619 0
DWIDTH 12 0
BBX 10 12 1 -3
BITMAP
EF00
7380
6180
6180
6180
6180
6180
6180
F3C0
0000
0C00
0C00
ENDCHAR
STARTCHAR uni1E48
ENCODING 7752
SWIDTH 780 0
DWIDTH 14 0
BBX 12 15 1 -2
BITMAP
E070
7020
7020
5820
5C20
4C20
4620
4720
4320
41A0
41E0
40E0
E060
0000
0F80
ENDCHAR
STARTCHAR uni1E49
ENCODING 7753
SWIDTH 619 0
DWIDTH 12 0
BBX 10 11 1 -2
BITMAP
EF00
7380
6180
6180
6180
6180
6180
6180
F3C0
0000
1F00
ENDCHAR
STARTCHAR uni1E4A
ENCODING 7754
SWIDTH 780 0
DWIDTH 14 0
BBX 12 16 1 -3
BITMAP
E070
7020
7020
5820
5C20
4C20
4620
4720
4320
41A0
41E0
40E0
E060
0000
0600
0D00
ENDCHAR
STARTCHAR uni1E4B
ENCODING 7755
SWIDTH 619 0
DWIDTH 12 0
BBX 10 12 1 -3
BITMAP
EF00
7380
6180
6180
6180
6180
6180
6180
F3C0
0000
0C00
1A00
ENDCHAR
STARTCHAR uni1E4C
ENCODING 7756
SWIDTH 762 0
DWIDTH 15 0
BBX 13 17 1 0
BITMAP
0300
0600
0000
0E40
1380
0000
0F80
3060
6030
C018
C018
C018
C018
C018
6030
3060
0F80
ENDCHAR
STARTCHAR uni1E4D
ENCODING 7757
SWIDTH 577 0
DWIDTH 11 0
BBX 9 15 1 0
BITMAP
0C00
1800
0000
3900
4E00
0000
3E00
6300
C180
C180
C180
C180
C180
6300
3E00
ENDCHAR
STARTCHAR uni1E4E
ENCODING 7758
SWIDTH 762 0
DWIDTH 15 0
BBX 13 17 1 0
BITMAP
0D80
0D80
0000
0E40
1380
0000
0F80
3060
6030
C018
C018
C018
C018
C018
6030
3060
0F80
ENDCHAR
STARTCHAR uni1E4F
ENCODING 7759
SWIDTH 577 0
DWIDTH 11 0
BBX 9 15 1 0
BITMAP
3600
3600
0000
3900
4E00
0000
3E00
6300
C180
C180
C180
C180
C180
6300
3E00
ENDCHAR
STARTCHAR uni1E50
ENCODING 7760
SWIDTH 762 0
DWIDTH 14 0
BBX 13 18 1 0
BITMAP
0600
0300
0000
0F80
0000
0F80
3060
6030
6030
C018
C018
C018
C018
C018
6030
6030
3060
0F80
ENDCHAR
STARTCHAR uni1E51
ENCODING 7761
SWIDTH 577 0
DWIDTH 11 0
BBX 9 14 1 0
BITMAP
1800
0C00
0000
3E00
0000
3E00
6300
C180
C180
C180
C180
C180
6300
3E00
ENDCHAR
STARTCHAR uni1E52
ENCODING 7762
SWIDTH 762 0
DWIDTH 14 0
BBX 13 18 1 0
BITMAP
0300
0600
0000
0F80
0000
0F80
3060
6030
6030
C018
C018
C018
C018
C018
6030
6030
3060
0F80
ENDCHAR
STARTCHAR uni1E53
ENCODING 7763
SWIDTH 577 0
DWIDTH 11 0
BBX 9 14 1 0
BITMAP
0C00
1800
0000
3E00
0000
3E00
6300
C180
C180
C180
C180
C180
6300
3E00
ENDCHAR
STARTCHAR uni1E54
ENCODING 7764
SWIDTH 600 0
DWIDTH 12 0
BBX 10 16 1 0
BITMAP
0600
0C00
0000
FF00
6180
60C0
60C0
60C0
60C0
6180
7E00
6000
6000
6000
6000
F000
ENDCHAR
STARTCHAR uni1E55
ENCODING 7765
SWIDTH 608 0
DWIDTH 12 0
BBX 10 16 1 -4
BITMAP
0600
0C00
0000
EF00
7180
60C0
60C0
60C0
60C0
60C0
7180
6F00
6000
6000
6000
F000
ENDCHAR
STARTCHAR uni1E56
ENCODING 7766
SWIDTH 600 0
DWIDTH 12 0
BBX 10 16 1 0
BITMAP
0C00
0C00
0000
FF00
6180
60C0
60C0
60C0
60C0
6180
7E00
6000
6000
6000
6000
F000
ENDCHAR
STARTCHAR uni1E57
ENCODING 7767
SWIDTH 608 0
DWIDTH 12 0
BBX 10 16 1 -4
BITMAP
0C00
0C00
0000
EF00
7180
60C0
60C0
60C0
60C0
60C0
7180
6F00
6000
6000
6000
F000
ENDCHAR
STARTCHAR uni1E58
ENCODING 7768
SWIDTH 644 0
DWIDTH 12 0
BBX 11 16 1 0
BITMAP
0C00
0C00
0000
FF00
6180
60C0
60C0
60C0
6180
7F00
6300
6180
6180
6180
60C0
F0E0
ENDCHAR
STARTCHAR uni1E59
ENCODING 7769
SWIDTH 389 0
DWIDTH 7 0
BBX 6 12 1 0
BITMAP
30
30
00
EC
74
60
60
60
60
60
60
F0
ENDCHAR
STARTCHAR uni1E5A
ENCODING 7770
SWIDTH 644 0
DWIDTH 12 0
BBX 11 16 1 -3
BITMAP
FF00
6180
60C0
60C0
60C0
6180
7F00
6300
6180
6180
6180
60C0
F0E0
0000
0C00
0C00
ENDCHAR
STARTCHAR uni1E5B
ENCODING 7771
SWIDTH 389 0
DWIDTH 7 0
BBX 6 12 1 -3
BITMAP
EC
74
60
60
60
60
60
60
F0
00
60
60
ENDCHAR
STARTCHAR uni1E5C
ENCODING 7772
SWIDTH 644 0
DWIDTH 12 0
BBX 11 18 1 -3
BITMAP
1F00
0000
FF00
6180
60C0
60C0
60C0
6180
7F00
6300
6180
6180
6180
60C0
F0E0
0000
0C00
0C00
ENDCHAR
STARTCHAR uni1E5D
ENCODING 7773
SWIDTH 389 0
DWIDTH 7 0
BBX 6 14 1 -3
BITMAP
F8
00
EC
74
60
60
60
60
60
60
F0
00
60
60
ENDCHAR
STARTCHAR uni1E5E
ENCODING 7774
SWIDTH 644 0
DWIDTH 12 0
BBX 11 15 1 -2
BITMAP
FF00
6180
60C0
60C0
60C0
6180
7F00
6300
6180
6180
6180
60C0
F0E0
0000
1F00
ENDCHAR
STARTCHAR uni1E5F
ENCODING 7775
SWIDTH 389 0
DWIDTH 7 0
BBX 6 11 1 -2
BITMAP
EC
74
60
60
60
60
60
60
F0
00
F8
ENDCHAR
STARTCHAR uni1E60
ENCODING 7776
SWIDTH 541 0
DWIDTH 10 0
BBX 8 16 1 0
BITMAP
18
18
00
3E
63
C1
C0
E0
78
1E
07
03
03
83
C6
7C
ENDCHAR
STARTCHAR uni1E61
ENCODING 7777
SWIDTH 436 0
DWIDTH 8 0
BBX 6 12 1 0
BITMAP
30
30
00
78
CC
80
E0
78
1C
04
CC
78
ENDCHAR
STARTCHAR uni1E62
ENCODING 7778
SWIDTH 541 0
DWIDTH 10 0
BBX 8 16 1 -3
BITMAP
3E
63
C1
C0
E0
78
1E
07
03
03
83
C6
7C
00
18
18
ENDCHAR
STARTCHAR uni1E63
ENCODING 7779
SWIDTH 436 0
DWIDTH 8 0
BBX 6 12 1 -3
BITMAP
78
CC
80
E0
78
1C
04
CC
78
00
30
30
ENDCHAR
STARTCHAR uni1E64
ENCODING 7780
SWIDTH 541 0
DWIDTH 10 0
BBX 8 19 1 0
BITMAP
18
18
00
0C
18
00
3E
63
C1
C0
E0
78
1E
07
03
03
83
C6
7C
ENDCHAR
STARTCHAR uni1E65
ENCODING 7781
SWIDTH 436 0
DWIDTH 8 0
BBX 6 15 1 0
BITMAP
30
30
00
18
30
00
78
CC
80
E0
78
1C
04
CC
78
ENDCHAR
STARTCHAR uni1E66
ENCODING 7782
SWIDTH 541 0
DWIDTH 10 0
BBX 8 17 1 0
BITMAP
18
18
00
34
18
00
3E
63
C1
E0
70
3C
0E
07
83
C6
7C
ENDCHAR
STARTCHAR uni1E67
ENCODING 7783
SWIDTH 436 0
DWIDTH 8 0
BBX 6 15 1 0
BITMAP
30
30
00
68
30
00
78
CC
80
E0
78
1C
04
CC
78
ENDCHAR
STARTCHAR uni1E68
ENCODING 7784
SWIDTH 541 0
DWIDTH 10 0
BBX 8 19 1 -3
BITMAP
18
18
00
3E
63
C1
C0
E0
78
1E
07
03
03
83
C6
7C
00
18
18
ENDCHAR
STARTCHAR uni1E69
ENCODING 7785
SWIDTH 436 0
DWIDTH 8 0
BBX 6 15 1 -3
BITMAP
30
30
00
78
CC
80
E0
78
1C
04
CC
78
00
30
30
ENDCHAR
STARTCHAR uni1E6A
ENCODING 7786
SWIDTH 621 0
DWIDTH 12 0
BBX 12 16 0 0
BITMAP
0600
0600
0000
FFF0
C630
8610
0600
0600
0600
0600
0600
0600
0600
0600
0600
1F80
ENDCHAR
STARTCHAR uni1E6B
ENCODING 7787
SWIDTH 344 0
DWIDTH 6 0
BBX 5 14 1 0
BITMAP
60
60
00
20
60
F8
60
60
60
60
60
60
60
38
ENDCHAR
STARTCHAR uni1E6C
ENCODING 7788
SWIDTH 621 0
DWIDTH 12 0
BBX 12 16 0 -3
BITMAP
FFF0
C630
8610
0600
0600
0600
0600
0600
0600
0600
0600
0600
1F80
0000
0600
0600
ENDCHAR
STARTCHAR uni1E6D
ENCODING 7789
SWIDTH 344 0
DWIDTH 6 0
BBX 5 14 1 -3
BITMAP
20
60
F8
60
60
60
60
60
60
60
38
00
30
30
ENDCHAR
STARTCHAR uni1E6E
ENCODING 7790
SWIDTH 621 0
DWIDTH 12 0
BBX 12 15 0 -2
BITMAP
FFF0
C630
8610
0600
0600
0600
0600
0600
0600
0600
0600
0600
1F80
0000
0F80
ENDCHAR
STARTCHAR uni1E6F
ENCODING 7791
SWIDTH 344 0
DWIDTH 6 0
BBX 5 13 1 -2
BITMAP
20
60
F8
60
60
60
60
60
60
60
38
00
F8
ENDCHAR
STARTCHAR uni1E70
ENCODING 7792
SWIDTH 621 0
DWIDTH 12 0
BBX 12 16 0 -3
BITMAP
FFF0
C630
8610
0600
0600
0600
0600
0600
0600
0600
0600
0600
1F80
0000
0600
0D00
ENDCHAR
STARTCHAR uni1E71
ENCODING 7793
SWIDTH 344 0
DWIDTH 6 0
BBX 5 14 1 -3
BITMAP
20
60
F8
60
60
60
60
60
60
60
38
00
30
68
ENDCHAR
STARTCHAR uni1E72
ENCODING 7794
SWIDTH 791 0
DWIDTH 14 0
BBX 12 16 1 -3
BITMAP
F0F0
6060
6060
6060
6060
6060
6060
6060
6060
6060
6060
30C0
0F00
0000
0D80
0D80
ENDCHAR
STARTCHAR uni1E73
ENCODING 7795
SWIDTH 606 0
DWIDTH 11 0
BBX 10 12 0 -3
BITMAP
E380
6180
6180
6180
6180
6180
6180
7380
3DC0
0000
1B00
1B00
ENDCHAR
STARTCHAR uni1E74
ENCODING 7796
SWIDTH 791 0
DWIDTH 14 0
BBX 12 16 1 -3
BITMAP
F0F0
6060
6060
6060
6060
6060
6060
6060
6060
6060
6060
30C0
0F00
0000
0E40
1380
ENDCHAR
STARTCHAR uni1E75
ENCODING 7797
SWIDTH 606 0
DWIDTH 11 0
BBX 10 12 0 -3
BITMAP
E380
6180
6180
6180
6180
6180
6180
7380
3DC0
0000
1C80
2700
ENDCHAR
STARTCHAR uni1E76
ENCODING 7798
SWIDTH 791 0
DWIDTH 14 0
BBX 12 16 1 -3
BITMAP
F0F0
6060
6060
6060
6060
6060
6060
6060
6060
6060
6060
30C0
0F00
0000
0600
0D00
ENDCHAR
STARTCHAR uni1E77
ENCODING 7799
SWIDTH 606 0
DWIDTH 11 0
BBX 10 12 0 -3
BITMAP
E380
6180
6180
6180
6180
6180
6180
7380
3DC0
0000
0C00
1A00
ENDCHAR
STARTCHAR uni1E78
ENCODING 7800
SWIDTH 791 0
DWIDTH 14 0
BBX 12 19 1 0
BITMAP
0300
0600
0000
0E40
1380
0000
F0F0
6060
6060
6060
6060
6060
6060
6060
6060
6060
6060
30C0
0F00
ENDCHAR
STARTCHAR uni1E79
ENCODING 7801
SWIDTH 606 0
DWIDTH 11 0
BBX 10 15 0 0
BITMAP
0600
0C00
0000
3900
4E00
0000
E380
6180
6180
6180
6180
6180
6180
7380
3DC0
ENDCHAR
STARTCHAR uni1E7A
ENCODING 7802
SWIDTH 791 0
DWIDTH 14 0
BBX 12 18 1 0
BITMAP
0D80
0D80
0000
0F80
0000
F0F0
6060
6060
6060
6060
6060
6060
6060
6060
6060
6060
30C0
0F00
ENDCHAR
STARTCHAR uni1E7B
ENCODING 7803
SWIDTH 606 0
DWIDTH 11 0
BBX 10 14 0 0
BITMAP
3600
3600
0000
3E00
0000
E380
6180
6180
6180
6180
6180
6180
7380
3DC0
ENDCHAR
STARTCHAR uni1E7C
ENCODING 7804
SWIDTH 634 0
DWIDTH 12 0
BBX 12 16 0 0
BITMAP
1C80
2700
0000
F070
6020
6020
3040
3040
3040
1880
1880
0D00
0D00
0D00
0600
0600
ENDCHAR
STARTCHAR uni1E7D
ENCODING 7805
SWIDTH 504 0
DWIDTH 9 0
BBX 9 12 0 0
BITMAP
3900
4E00
0000
F380
6100
6100
3200
3200
3200
1C00
1C00
0800
ENDCHAR
STARTCHAR uni1E7E
ENCODING 7806
SWIDTH 634 0
DWIDTH 12 0
BBX 12 16 0 -3
BITMAP
F070
6020
6020
3040
3040
3040
1880
1880
0D00
0D00
0D00
0600
0600
0000
0600
0600
ENDCHAR
STARTCHAR uni1E7F
ENCODING 7807
SWIDTH 504 0
DWIDTH 9 0
BBX 9 12 0 -3
BITMAP
F380
6100
6100
3200
3200
3200
1C00
1C00
0800
0000
0C00
0C00
ENDCHAR
STARTCHAR Wgrave
ENCODING 7808
SWIDTH 940 0
DWIDTH 18 0
BBX 18 16 0 0
BITMAP
030000
018000
000000
F001C0
604080
604080
30E100
30E100
30E100
193200
193200
193200
0E1C00
0E1C00
0E1C00
040800
ENDCHAR
STARTCHAR wgrave
ENCODING 7809
SWIDTH 768 0
DWIDTH 14 0
BBX 14 12 0 0
BITMAP
0600
0300
0000
F11C
6108
6388
3390
3390
34D0
1CE0
1CE0
0840
ENDCHAR
STARTCHAR Wacute
ENCODING 7810
SWIDTH 940 0
DWIDTH 18 0
BBX 18 16 0 0
BITMAP
00C000
018000
000000
F001C0
604080
604080
30E100
30E100
30E100
193200
193200
193200
0E1C00
0E1C00
0E1C00
040800
ENDCHAR
STARTCHAR wacute
ENCODING 7811
SWIDTH 768 0
DWIDTH 14 0
BBX 14 12 0 0
BITMAP
0300
0600
0000
F11C
6108
6388
3390
3390
34D0
1CE0
1CE0
0840
ENDCHAR
STARTCHAR Wdieresis
ENCODING 7812
SWIDTH 940 0
DWIDTH 18 0
BBX 18 16 0 0
BITMAP
036000
036000
000000
F001C0
604080
604080
30E100
30E100
30E100
193200
193200
193200
0E1C00
0E1C00
0E1C00
040800
ENDCHAR
STARTCHAR wdieresis
ENCODING 7813
SWIDTH 768 0
DWIDTH 14 0
BBX 14 12 0 0
BITMAP
0D80
0D80
0000
F11C
6108
6388
3390
3390
34D0
1CE0
1CE0
0840
ENDCHAR
STARTCHAR uni1E86
ENCODING 7814
SWIDTH 940 0
DWIDTH 18 0
BBX 18 16 0 0
BITMAP
018000
018000
000000
F001C0
604080
604080
30E100
30E100
30E100
193200
193200
193200
0E1C00
0E1C00
0E1C00
040800
ENDCHAR
STARTCHAR uni1E87
ENCODING 7815
SWIDTH 768 0
DWIDTH 14 0
BBX 14 12 0 0
BITMAP
0300
0300
0000
F11C
6108
6388
3390
3390
34D0
1CE0
1CE0
0840
ENDCHAR
STARTCHAR uni1E88
ENCODING 7816
SWIDTH 940 0
DWIDTH 18 0
BBX 18 16 0 -3
BITMAP
F001C0
604080
604080
30E100
30E100
30E100
193200
193200
193200
0E1C00
0E1C00
0E1C00
040800
000000
00C000
00C000
ENDCHAR
STARTCHAR uni1E89
ENCODING 7817
SWIDTH 768 0
DWIDTH 14 0
BBX 14 12 0 -3
BITMAP
F11C
6108
6388
3390
3390
34D0
1CE0
1CE0
0840
0000
0300
0300
ENDCHAR
STARTCHAR uni1E8A
ENCODING 7818
SWIDTH 624 0
DWIDTH 11 0
BBX 11 16 0 0
BITMAP
0C00
0C00
0000
F0E0
6040
3080
3900
1900
0E00
0E00
0E00
1300
1380
2180
40C0
E1E0
ENDCHAR
STARTCHAR uni1E8B
ENCODING 7819
SWIDTH 486 0
DWIDTH 9 0
BBX 9 12 0 0
BITMAP
1800
1800
0000
F380
6100
3200
3400
1C00
1600
2600
4300
E780
ENDCHAR
STARTCHAR uni1E8C
ENCODING 7820
SWIDTH 624 0
DWIDTH 11 0
BBX 11 16 0 0
BITMAP
1B00
1B00
0000
F0E0
6040
3080
3900
1900
0E00
0E00
0E00
1300
1380
2180
40C0
E1E0
ENDCHAR
STARTCHAR uni1E8D
ENCODING 7821
SWIDTH 486 0
DWIDTH 9 0
BBX 9 12 0 0
BITMAP
3600
3600
0000
F380
6100
3200
3400
1C00
1600
2600
4300
E780
ENDCHAR
STARTCHAR uni1E8E
ENCODING 7822
SWIDTH 588 0
DWIDTH 12 0
BBX 12 16 0 0
BITMAP
0600
0600
0000
F070
6020
3040
3040
1880
0D00
0D00
0600
0600
0600
0600
0600
0F00
ENDCHAR
STARTCHAR uni1E8F
ENCODING 7823
SWIDTH 506 0
DWIDTH 9 0
BBX 9 16 0 -4
BITMAP
1800
1800
0000
F380
6100
6100
3200
3200
3200
1C00
1C00
0800
0800
1000
F000
6000
ENDCHAR
STARTCHAR uni1E90
ENCODING 7824
SWIDTH 610 0
DWIDTH 12 0
BBX 10 16 1 0
BITMAP
0C00
1A00
0000
FF80
C180
8300
0600
0600
0C00
1800
1800
3000
6000
6040
C0C0
FFC0
ENDCHAR
STARTCHAR uni1E91
ENCODING 7825
SWIDTH 480 0
DWIDTH 9 0
BBX 7 12 1 0
BITMAP
18
34
00
FE
86
0C
18
10
30
60
C2
FE
ENDCHAR
STARTCHAR uni1E92
ENCODING 7826
SWIDTH 610 0
DWIDTH 12 0
BBX 10 16 1 -3
BITMAP
FF80
C180
8300
0600
0600
0C00
1800
1800
3000
6000
6040
C0C0
FFC0
0000
0C00
0C00
ENDCHAR
STARTCHAR uni1E93
ENCODING 7827
SWIDTH 480 0
DWIDTH 9 0
BBX 7 12 1 -3
BITMAP
FE
86
0C
18
10
30
60
C2
FE
00
30
30
ENDCHAR
STARTCHAR uni1E94
ENCODING 7828
SWIDTH 610 0
DWIDTH 12 0
BBX 10 15 1 -2
BITMAP
FF80
C180
8300
0600
0600
0C00
1800
1800
3000
6000
6040
C0C0
FFC0
0000
3E00
ENDCHAR
STARTCHAR uni1E95
ENCODING 7829
SWIDTH 480 0
DWIDTH 9 0
BBX 7 11 1 -2
BITMAP
FE
86
0C
18
10
30
60
C2
FE
00
7C
ENDCHAR
STARTCHAR uni1E96
ENCODING 7830
SWIDTH 607 0
DWIDTH 12 0
BBX 10 16 1 -2
BITMAP
E000
6000
6000
6000
6000
6F00
7380
6180
6180
6180
6180
6180
6180
F3C0
0000
1F00
ENDCHAR
STARTCHAR uni1E97
ENCODING 7831
SWIDTH 344 0
DWIDTH 6 0
BBX 5 14 1 0
BITMAP
D8
D8
00
20
60
F8
60
60
60
60
60
60
60
38
ENDCHAR
STARTCHAR uni1E98
ENCODING 7832
SWIDTH 768 0
DWIDTH 14 0
BBX 14 14 0 0
BITMAP
0300
0480
0480
0300
0000
F11C
6108
6388
3390
3390
34D0
1CE0
1CE0
0840
ENDCHAR
STARTCHAR uni1E99
ENCODING 7833
SWIDTH 506 0
DWIDTH 9 0
BBX 9 18 0 -4
BITMAP
1800
2400
2400
1800
0000
F380
6100
6100
3200
3200
3200
1C00
1C00
0800
0800
1000
F000
6000
ENDCHAR
STARTCHAR uni1EA0
ENCODING 7840
SWIDTH 635 0
DWIDTH 12 0
BBX 12 16 0 -3
BITMAP
0600
0600
0B00
0B00
0B00
1180
1180
3FC0
20C0
20C0
4060
4060
E0F0
0000
0300
0300
ENDCHAR
STARTCHAR uni1EA1
ENCODING 7841
SWIDTH 523 0
DWIDTH 10 0
BBX 8 12 1 -3
BITMAP
7C
C6
06
0E
36
C6
C6
CE
77
00
18
18
ENDCHAR
STARTCHAR uni1EA4
ENCODING 7844
SWIDTH 635 0
DWIDTH 12 0
BBX 12 17 0 0
BITMAP
0300
0600
0000
0600
0D00
0000
0600
0600
0B00
0B00
1180
1180
3FC0
20C0
4060
4060
E0F0
ENDCHAR
STARTCHAR uni1EA5
ENCODING 7845
SWIDTH 523 0
DWIDTH 10 0
BBX 8 15 1 0
BITMAP
18
30
00
30
68
00
7C
C6
06
0E
36
C6
C6
CE
77
ENDCHAR
STARTCHAR uni1EA6
ENCODING 7846
SWIDTH 635 0
DWIDTH 12 0
BBX 12 17 0 0
BITMAP
0C00
0600
0000
0600
0D00
0000
0600
0600
0B00
0B00
1180
1180
3FC0
20C0
4060
4060
E0F0
ENDCHAR
STARTCHAR uni1EA7
ENCODING 7847
SWIDTH 523 0
DWIDTH 10 0
BBX 8 15 1 0
BITMAP
30
18
00
30
68
00
7C
C6
06
0E
36
C6
C6
CE
77
ENDCHAR
STARTCHAR uni1EAA
ENCODING 7850
SWIDTH 635 0
DWIDTH 12 0
BBX 12 17 0 0
BITMAP
1C80
2700
0000
0600
0D00
0000
0600
0600
0B00
0B00
1180
1180
3FC0
20C0
4060
4060
E0F0
ENDCHAR
STARTCHAR uni1EAB
ENCODING 7851
SWIDTH 523 0
DWIDTH 10 0
BBX 8 15 1 0
BITMAP
72
9C
00
30
68
00
7C
C6
06
0E
36
C6
C6
CE
77
ENDCHAR
STARTCHAR uni1EAC
ENCODING 7852
SWIDTH 635 0
DWIDTH 12 0
BBX 12 19 0 -3
BITMAP
0600
0D00
0000
0600
0600
0B00
0B00
0B00
1180
1180
3FC0
20C0
20C0
4060
4060
E0F0
0000
0300
0300
ENDCHAR
STARTCHAR uni1EAD
ENCODING 7853
SWIDTH 523 0
DWIDTH 10 0
BBX 8 15 1 -3
BITMAP
18
34
00
7C
C6
06
0E
36
C6
C6
CE
77
00
18
18
ENDCHAR
STARTCHAR uni1EAE
ENCODING 7854
SWIDTH 635 0
DWIDTH 12 0
BBX 12 19 0 0
BITMAP
0300
0600
0000
0880
0700
0000
0600
0600
0B00
0B00
0B00
1180
1180
3FC0
20C0
20C0
4060
4060
E0F0
ENDCHAR
STARTCHAR uni1EAF
ENCODING 7855
SWIDTH 523 0
DWIDTH 10 0
BBX 8 15 1 0
BITMAP
0C
18
00
44
38
00
7C
C6
06
0E
36
C6
C6
CE
77
ENDCHAR
STARTCHAR uni1EB0
ENCODING 7856
SWIDTH 635 0
DWIDTH 12 0
BBX 12 19 0 0
BITMAP
0C00
0600
0000
0880
0700
0000
0600
0600
0B00
0B00
0B00
1180
1180
3FC0
20C0
20C0
4060
4060
E0F0
ENDCHAR
STARTCHAR uni1EB1
ENCODING 7857
SWIDTH 523 0
DWIDTH 10 0
BBX 8 15 1 0
BITMAP
30
18
00
44
38
00
7C
C6
06
0E
36
C6
C6
CE
77
ENDCHAR
STARTCHAR uni1EB4
ENCODING 7860
SWIDTH 635 0
DWIDTH 12 0
BBX 12 19 0 0
BITMAP
0E40
1380
0000
0880
0700
0000
0600
0600
0B00
0B00
0B00
1180
1180
3FC0
20C0
20C0
4060
4060
E0F0
ENDCHAR
STARTCHAR uni1EB5
ENCODING 7861
SWIDTH 523 0
DWIDTH 10 0
BBX 8 15 1 0
BITMAP
72
9C
00
44
38
00
7C
C6
06
0E
36
C6
C6
CE
77
ENDCHAR
STARTCHAR uni1EB6
ENCODING 7862
SWIDTH 635 0
DWIDTH 12 0
BBX 12 19 0 -3
BITMAP
0880
0700
0000
0600
0600
0B00
0B00
0B00
1180
1180
3FC0
20C0
20C0
4060
4060
E0F0
0000
0300
0300
ENDCHAR
STARTCHAR uni1EB7
ENCODING 7863
SWIDTH 523 0
DWIDTH 10 0
BBX 8 15 1 -3
BITMAP
22
1C
00
7C
C6
06
0E
36
C6
C6
CE
77
00
18
18
ENDCHAR
STARTCHAR uni1EB8
ENCODING 7864
SWIDTH 606 0
DWIDTH 11 0
BBX 10 16 1 -3
BITMAP
FF80
6180
6080
6000
6000
6100
7F00
6100
6000
6000
6040
60C0
FFC0
0000
0C00
0C00
ENDCHAR
STARTCHAR uni1EB9
ENCODING 7865
SWIDTH 514 0
DWIDTH 10 0
BBX 8 12 1 -3
BITMAP
3C
66
C3
FF
C0
C0
C1
62
3C
00
18
18
ENDCHAR
STARTCHAR uni1EBC
ENCODING 7868
SWIDTH 606 0
DWIDTH 11 0
BBX 10 16 1 0
BITMAP
3900
4E00
0000
FF80
6180
6080
6000
6000
6100
7F00
6100
6000
6000
6040
60C0
FFC0
ENDCHAR
STARTCHAR uni1EBD
ENCODING 7869
SWIDTH 514 0
DWIDTH 10 0
BBX 8 12 1 0
BITMAP
39
4E
00
3C
66
C3
FF
C0
C0
C1
62
3C
ENDCHAR
STARTCHAR uni1EBE
ENCODING 7870
SWIDTH 606 0
DWIDTH 11 0
BBX 10 17 1 0
BITMAP
0C00
1800
0000
1800
3400
0000
FF80
6180
6080
6000
6200
7E00
6200
6000
6040
60C0
FFC0
ENDCHAR
STARTCHAR uni1EBF
ENCODING 7871
SWIDTH 514 0
DWIDTH 10 0
BBX 8 15 1 0
BITMAP
18
30
00
30
68
00
3C
66
C3
FF
C0
C0
C1
62
3C
ENDCHAR
STARTCHAR uni1EC0
ENCODING 7872
SWIDTH 606 0
DWIDTH 11 0
BBX 10 17 1 0
BITMAP
1800
0C00
0000
1800
3400
0000
FF80
6180
6080
6000
6200
7E00
6200
6000
6040
60C0
FFC0
ENDCHAR
STARTCHAR uni1EC1
ENCODING 7873
SWIDTH 514 0
DWIDTH 10 0
BBX 8 15 1 0
BITMAP
30
18
00
30
68
00
3C
66
C3
FF
C0
C0
C1
62
3C
ENDCHAR
STARTCHAR uni1EC4
ENCODING 7876
SWIDTH 606 0
DWIDTH 11 0
BBX 10 17 1 0
BITMAP
3900
4E00
0000
1800
3400
0000
FF80
6180
6080
6000
6200
7E00
6200
6000
6040
60C0
FFC0
ENDCHAR
STARTCHAR uni1EC5
ENCODING 7877
SWIDTH 514 0
DWIDTH 10 0
BBX 8 15 1 0
BITMAP
72
9C
00
30
68
00
3C
66
C3
FF
C0
C0
C1
62
3C
ENDCHAR
STARTCHAR uni1EC6
ENCODING 7878
SWIDTH 606 0
DWIDTH 11 0
BBX 10 19 1 -3
BITMAP
1800
3400
0000
FF80
6180
6080
6000
6000
6100
7F00
6100
6000
6000
6040
60C0
FFC0
0000
0C00
0C00
ENDCHAR
STARTCHAR uni1EC7
ENCODING 7879
SWIDTH 514 0
DWIDTH 10 0
BBX 8 15 1 -3
BITMAP
18
34
00
3C
66
C3
FF
C0
C0
C1
62
3C
00
18
18
ENDCHAR
STARTCHAR uni1ECA
ENCODING 7882
SWIDTH 349 0
DWIDTH 6 0
BBX 4 16 1 -3
BITMAP
F0
60
60
60
60
60
60
60
60
60
60
60
F0
00
60
60
ENDCHAR
STARTCHAR uni1ECB
ENCODING 7883
SWIDTH 291 0
DWIDTH 6 0
BBX 4 15 1 -3
BITMAP
60
60
00
E0
60
60
60
60
60
60
60
F0
00
60
60
ENDCHAR
STARTCHAR uni1ECC
ENCODING 7884
SWIDTH 762 0
DWIDTH 14 0
BBX 13 16 1 -3
BITMAP
0F80
3060
6030
6030
C018
C018
C018
C018
C018
6030
6030
3060
0F80
0000
0300
0300
ENDCHAR
STARTCHAR uni1ECD
ENCODING 7885
SWIDTH 577 0
DWIDTH 11 0
BBX 9 12 1 -3
BITMAP
3E00
6300
C180
C180
C180
C180
C180
6300
3E00
0000
0C00
0C00
ENDCHAR
STARTCHAR uni1ED0
ENCODING 7888
SWIDTH 762 0
DWIDTH 15 0
BBX 13 17 1 0
BITMAP
0300
0600
0000
0600
0D00
0000
0F80
3060
6030
C018
C018
C018
C018
C018
6030
3060
0F80
ENDCHAR
STARTCHAR uni1ED1
ENCODING 7889
SWIDTH 577 0
DWIDTH 11 0
BBX 9 15 1 0
BITMAP
0C00
1800
0000
1800
3400
0000
3E00
6300
C180
C180
C180
C180
C180
6300
3E00
ENDCHAR
STARTCHAR uni1ED2
ENCODING 7890
SWIDTH 762 0
DWIDTH 15 0
BBX 13 17 1 0
BITMAP
0C00
0600
0000
0600
0D00
0000
0F80
3060
6030
C018
C018
C018
C018
C018
6030
3060
0F80
ENDCHAR
STARTCHAR uni1ED3
ENCODING 7891
SWIDTH 577 0
DWIDTH 11 0
BBX 9 15 1 0
BITMAP
3000
1800
0000
1800
3400
0000
3E00
6300
C180
C180
C180
C180
C180
6300
3E00
ENDCHAR
STARTCHAR uni1ED6
ENCODING 7894
SWIDTH 762 0
DWIDTH 15 0
BBX 13 17 1 0
BITMAP
0E40
1380
0000
0600
0D00
0000
0F80
3060
6030
C018
C018
C018
C018
C018
6030
3060
0F80
ENDCHAR
STARTCHAR uni1ED7
ENCODING 7895
SWIDTH 577 0
DWIDTH 11 0
BBX 9 15 1 0
BITMAP
3900
4E00
0000
1800
3400
0000
3E00
6300
C180
C180
C180
C180
C180
6300
3E00
ENDCHAR
STARTCHAR uni1ED8
ENCODING 7896
SWIDTH 762 0
DWIDTH 14 0
BBX 13 19 1 -3
BITMAP
0300
0680
0000
0F80
3060
6030
6030
C018
C018
C018
C018
C018
6030
6030
3060
0F80
0000
0300
0300
ENDCHAR
STARTCHAR uni1ED9
ENCODING 7897
SWIDTH 577 0
DWIDTH 11 0
BBX 9 15 1 -3
BITMAP
0C00
1A00
0000
3E00
6300
C180
C180
C180
C180
C180
6300
3E00
0000
0C00
0C00
ENDCHAR
STARTCHAR uni1EDA
ENCODING 7898
SWIDTH 762 0
DWIDTH 14 0
BBX 15 16 1 0
BITMAP
00C0
0180
0000
0F84
306E
6036
6034
C018
C018
C018
C018
C018
6030
6030
3060
0F80
ENDCHAR
STARTCHAR uni1EDB
ENCODING 7899
SWIDTH 577 0
DWIDTH 11 0
BBX 11 12 1 0
BITMAP
0300
0600
0000
3E40
63E0
C1E0
C1C0
C180
C180
C180
6300
3E00
ENDCHAR
STARTCHAR uni1EDC
ENCODING 7900
SWIDTH 762 0
DWIDTH 14 0
BBX 15 16 1 0
BITMAP
0300
0180
0000
0F84
306E
6036
6034
C018
C018
C018
C018
C018
6030
6030
3060
0F80
ENDCHAR
STARTCHAR uni1EDD
ENCODING 7901
SWIDTH 577 0
DWIDTH 11 0
BBX 11 12 1 0
BITMAP
0C00
0600
0000
3E40
63E0
C1E0
C1C0
C180
C180
C180
6300
3E00
ENDCHAR
STARTCHAR uni1EE0
ENCODING 7904
SWIDTH 762 0
DWIDTH 14 0
BBX 15 16 1 0
BITMAP
0390
04E0
0000
0F84
306E
6036
6034
C018
C018
C018
C018
C018
6030
6030
3060
0F80
ENDCHAR
STARTCHAR uni1EE1
ENCODING 7905
SWIDTH 577 0
DWIDTH 11 0
BBX 11 12 1 0
BITMAP
1C80
2700
0000
3E40
63E0
C1E0
C1C0
C180
C180
C180
6300
3E00
ENDCHAR
STARTCHAR uni1EE2
ENCODING 7906
SWIDTH 762 0
DWIDTH 14 0
BBX 15 16 1 -3
BITMAP
0F84
306E
6036
6034
C018
C018
C018
C018
C018
6030
6030
3060
0F80
0000
0300
0300
ENDCHAR
STARTCHAR uni1EE3
ENCODING 7907
SWIDTH 577 0
DWIDTH 11 0
BBX 11 12 1 -3
BITMAP
3E40
63E0
C1E0
C1C0
C180
C180
C180
6300
3E00
0000
0C00
0C00
ENDCHAR
STARTCHAR uni1EE4
ENCODING 7908
SWIDTH 791 0
DWIDTH 14 0
BBX 12 16 1 -3
BITMAP
F0F0
6060
6060
6060
6060
6060
6060
6060
6060
6060
6060
30C0
0F00
0000
0600
0600
ENDCHAR
STARTCHAR uni1EE5
ENCODING 7909
SWIDTH 606 0
DWIDTH 11 0
BBX 10 12 0 -3
BITMAP
E380
6180
6180
6180
6180
6180
6180
7380
3DC0
0000
0C00
0C00
ENDCHAR
STARTCHAR uni1EE8
ENCODING 7912
SWIDTH 791 0
DWIDTH 14 0
BBX 14 16 1 0
BITMAP
0180
0300
0000
F0F8
607C
606C
6068
6070
6060
6060
6060
6060
6060
6060
30C0
0F00
ENDCHAR
STARTCHAR uni1EE9
ENCODING 7913
SWIDTH 606 0
DWIDTH 11 0
BBX 12 12 0 0
BITMAP
0300
0600
0000
E3A0
61F0
61B0
61A0
61C0
6180
6180
7380
3DC0
ENDCHAR
STARTCHAR uni1EEA
ENCODING 7914
SWIDTH 791 0
DWIDTH 14 0
BBX 14 16 1 0
BITMAP
0300
0180
0000
F0F8
607C
606C
6068
6070
6060
6060
6060
6060
6060
6060
30C0
0F00
ENDCHAR
STARTCHAR uni1EEB
ENCODING 7915
SWIDTH 606 0
DWIDTH 11 0
BBX 12 12 0 0
BITMAP
0600
0300
0000
E3A0
61F0
61B0
61A0
61C0
6180
6180
7380
3DC0
ENDCHAR
STARTCHAR uni1EEE
ENCODING 7918
SWIDTH 791 0
DWIDTH 14 0
BBX 14 16 1 0
BITMAP
0720
09C0
0000
F0F8
607C
606C
6068
6070
6060
6060
6060
6060
6060
6060
30C0
0F00
ENDCHAR
STARTCHAR uni1EEF
ENCODING 7919
SWIDTH 606 0
DWIDTH 11 0
BBX 12 12 0 0
BITMAP
0E40
1380
0000
E3A0
61F0
61B0
61A0
61C0
6180
6180
7380
3DC0
ENDCHAR
STARTCHAR uni1EF0
ENCODING 7920
SWIDTH 791 0
DWIDTH 14 0
BBX 14 16 1 -3
BITMAP
F0F8
607C
606C
6068
6070
6060
6060
6060
6060
6060
6060
30C0
0F00
0000
0600
0600
ENDCHAR
STARTCHAR uni1EF1
ENCODING 7921
SWIDTH 606 0
DWIDTH 11 0
BBX 12 12 0 -3
BITMAP
E3A0
61F0
61B0
61A0
61C0
6180
6180
7380
3DC0
0000
0600
0600
ENDCHAR
STARTCHAR Ygrave
ENCODING 7922
SWIDTH 588 0
DWIDTH 12 0
BBX 12 16 0 0
BITMAP
0C00
0600
0000
F070
6020
3040
3040
1880
0D00
0D00
0600
0600
0600
0600
0600
0F00
ENDCHAR
STARTCHAR ygrave
ENCODING 7923
SWIDTH 506 0
DWIDTH 9 0
BBX 9 16 0 -4
BITMAP
3000
1800
0000
F380
6100
6100
3200
3200
3200
1C00
1C00
0800
0800
1000
F000
6000
ENDCHAR
STARTCHAR uni1EF4
ENCODING 7924
SWIDTH 588 0
DWIDTH 12 0
BBX 12 16 0 -3
BITMAP
F070
6020
3040
3040
1880
0D00
0D00
0600
0600
0600
0600
0600
0F00
0000
0600
0600
ENDCHAR
STARTCHAR uni1EF5
ENCODING 7925
SWIDTH 506 0
DWIDTH 9 0
BBX 9 16 0 -7
BITMAP
F380
6100
6100
3200
3200
3200
1C00
1C00
0800
0800
1000
F000
6000
0000
3000
3000
ENDCHAR
STARTCHAR uni1EF8
ENCODING 7928
SWIDTH 588 0
DWIDTH 12 0
BBX 12 16 0 0
BITMAP
1C80
2700
0000
F070
6020
3040
3040
1880
0D00
0D00
0600
0600
0600
0600
0600
0F00
ENDCHAR
STARTCHAR uni1EF9
ENCODING 7929
SWIDTH 506 0
DWIDTH 9 0
BBX 9 16 0 -4
BITMAP
3900
4E00
0000
F380
6100
6100
3200
3200
3200
1C00
1C00
0800
0800
1000
F000
6000
ENDCHAR
STARTCHAR uni2000
ENCODING 8192
SWIDTH 500 0
DWIDTH 9 0
BBX 1 1 0 0
BITMAP
00
ENDCHAR
STARTCHAR uni2001
ENCODING 8193
SWIDTH 1000 0
DWIDTH 19 0
BBX 1 1 0 0
BITMAP
00
ENDCHAR
STARTCHAR uni2002
ENCODING 8194
SWIDTH 500 0
DWIDTH 9 0
BBX 1 1 0 0
BITMAP
00
ENDCHAR
STARTCHAR uni2003
ENCODING 8195
SWIDTH 1000 0
DWIDTH 19 0
BBX 1 1 0 0
BITMAP
00
ENDCHAR
STARTCHAR uni2004
ENCODING 8196
SWIDTH 333 0
DWIDTH 6 0
BBX 1 1 0 0
BITMAP
00
ENDCHAR
STARTCHAR uni2005
ENCODING 8197
SWIDTH 250 0
DWIDTH 5 0
BBX 1 1 0 0
BITMAP
00
ENDCHAR
STARTCHAR uni2006
ENCODING 8198
SWIDTH 167 0
DWIDTH 3 0
BBX 1 1 0 0
BITMAP
00
ENDCHAR
STARTCHAR uni2007
ENCODING 8199
SWIDTH 530 0
DWIDTH 10 0
BBX 1 1 0 0
BITMAP
00
ENDCHAR
STARTCHAR uni2008
ENCODING 8200
SWIDTH 265 0
DWIDTH 5 0
BBX 1 1 0 0
BITMAP
00
ENDCHAR
STARTCHAR uni2009
ENCODING 8201
SWIDTH 200 0
DWIDTH 4 0
BBX 1 1 0 0
BITMAP
00
ENDCHAR
STARTCHAR uni200A
ENCODING 8202
SWIDTH 100 0
DWIDTH 2 0
BBX 1 1 0 0
BITMAP
00
ENDCHAR
STARTCHAR uni200B
ENCODING 8203
SWIDTH 0 0
DWIDTH 0 0
BBX 1 1 0 0
BITMAP
00
ENDCHAR
STARTCHAR uni2010
ENCODING 8208
SWIDTH 392 0
DWIDTH 7 0
BBX 5 1 1 4
BITMAP
F8
ENDCHAR
STARTCHAR uni2011
ENCODING 8209
SWIDTH 392 0
DWIDTH 7 0
BBX 5 1 1 4
BITMAP
F8
ENDCHAR
STARTCHAR figuredash
ENCODING 8210
SWIDTH 500 0
DWIDTH 9 0
BBX 9 1 0 4
BITMAP
FF80
ENDCHAR
STARTCHAR endash
ENCODING 8211
SWIDTH 500 0
DWIDTH 9 0
BBX 9 1 0 4
BITMAP
FF80
ENDCHAR
STARTCHAR emdash
ENCODING 8212
SWIDTH 1000 0
DWIDTH 19 0
BBX 19 1 0 4
BITMAP
FFFFE0
ENDCHAR
STARTCHAR afii00208
ENCODING 8213
SWIDTH 1000 0
DWIDTH 19 0
BBX 19 1 0 4
BITMAP
FFFFE0
ENDCHAR
STARTCHAR quoteleft
ENCODING 8216
SWIDTH 278 0
DWIDTH 5 0
BBX 3 5 1 8
BITMAP
20
40
C0
E0
40
ENDCHAR
STARTCHAR quoteright
ENCODING 8217
SWIDTH 278 0
DWIDTH 5 0
BBX 3 5 1 8
BITMAP
40
E0
60
40
80
ENDCHAR
STARTCHAR quotesinglbase
ENCODING 8218
SWIDTH 278 0
DWIDTH 5 0
BBX 3 5 0 -2
BITMAP
40
E0
60
40
80
ENDCHAR
STARTCHAR quotereversed
ENCODING 8219
SWIDTH 278 0
DWIDTH 5 0
BBX 3 5 1 8
BITMAP
40
E0
C0
40
20
ENDCHAR
STARTCHAR quotedblleft
ENCODING 8220
SWIDTH 458 0
DWIDTH 8 0
BBX 6 5 1 8
BITMAP
24
48
D8
DC
48
ENDCHAR
STARTCHAR quotedblright
ENCODING 8221
SWIDTH 458 0
DWIDTH 8 0
BBX 6 5 1 8
BITMAP
48
EC
6C
48
90
ENDCHAR
STARTCHAR quotedblbase
ENCODING 8222
SWIDTH 458 0
DWIDTH 8 0
BBX 6 5 0 -2
BITMAP
48
EC
6C
48
90
ENDCHAR
STARTCHAR uni201F
ENCODING 8223
SWIDTH 458 0
DWIDTH 8 0
BBX 6 5 1 8
BITMAP
48
DC
D8
48
24
ENDCHAR
STARTCHAR dagger
ENCODING 8224
SWIDTH 504 0
DWIDTH 9 0
BBX 8 15 0 -2
BITMAP
18
18
18
18
FF
18
18
18
18
18
18
18
18
18
18
ENDCHAR
STARTCHAR daggerdbl
ENCODING 8225
SWIDTH 488 0
DWIDTH 9 0
BBX 8 15 0 -2
BITMAP
18
18
18
18
FF
18
18
18
18
18
FF
18
18
18
18
ENDCHAR
STARTCHAR bullet
ENCODING 8226
SWIDTH 409 0
DWIDTH 8 0
BBX 6 5 1 4
BITMAP
78
FC
FC
FC
78
ENDCHAR
STARTCHAR ellipsis
ENCODING 8230
SWIDTH 1000 0
DWIDTH 18 0
BBX 14 2 1 0
BITMAP
C30C
C30C
ENDCHAR
STARTCHAR perthousand
ENCODING 8240
SWIDTH 1208 0
DWIDTH 23 0
BBX 20 13 1 0
BITMAP
702000
8FC000
884000
888000
890000
890000
7270E0
048910
048910
088910
108910
108910
2070E0
ENDCHAR
STARTCHAR guilsinglleft
ENCODING 8249
SWIDTH 257 0
DWIDTH 5 0
BBX 4 7 0 1
BITMAP
10
20
60
C0
60
20
10
ENDCHAR
STARTCHAR guilsinglright
ENCODING 8250
SWIDTH 257 0
DWIDTH 5 0
BBX 4 7 0 1
BITMAP
80
40
60
30
60
40
80
ENDCHAR
STARTCHAR fraction
ENCODING 8260
SWIDTH 150 0
DWIDTH 3 0
BBX 9 13 -3 0
BITMAP
0080
0100
0100
0200
0400
0400
0800
1000
1000
2000
4000
4000
8000
ENDCHAR
STARTCHAR oneinferior
ENCODING 8321
SWIDTH 380 0
DWIDTH 7 0
BBX 5 8 1 -4
BITMAP
20
E0
20
20
20
20
20
F8
ENDCHAR
STARTCHAR twoinferior
ENCODING 8322
SWIDTH 380 0
DWIDTH 7 0
BBX 5 8 1 -4
BITMAP
70
88
08
10
20
40
88
F8
ENDCHAR
STARTCHAR threeinferior
ENCODING 8323
SWIDTH 380 0
DWIDTH 7 0
BBX 5 8 1 -4
BITMAP
70
88
08
70
08
08
88
70
ENDCHAR
STARTCHAR uni20A5
ENCODING 8357
SWIDTH 923 0
DWIDTH 18 0
BBX 16 13 1 -2
BITMAP
0020
0020
EF3C
73CE
61C6
6186
6186
6186
6186
6186
F3CF
0200
0200
ENDCHAR
STARTCHAR uni20A6
ENCODING 8358
SWIDTH 780 0
DWIDTH 14 0
BBX 12 13 1 0
BITMAP
E070
7020
7020
5820
7FE0
4C20
4620
4720
7FE0
41A0
41E0
40E0
E060
ENDCHAR
STARTCHAR uni20A9
ENCODING 8361
SWIDTH 940 0
DWIDTH 18 0
BBX 18 13 0 0
BITMAP
F001C0
604080
604080
30E100
37FD00
30E100
193200
193200
1FFE00
0E1C00
0E1C00
0E1C00
040800
ENDCHAR
STARTCHAR Euro
ENCODING 8364
SWIDTH 684 0
DWIDTH 13 0
BBX 13 13 -1 0
BITMAP
03F0
0C18
1808
1800
FF80
3000
3000
3000
FF80
1800
1808
0C18
03E0
ENDCHAR
STARTCHAR uni20AD
ENCODING 8365
SWIDTH 658 0
DWIDTH 12 0
BBX 11 13 1 0
BITMAP
F1E0
6080
6100
6200
6400
6800
FFE0
6E00
6600
6300
6380
61C0
F0E0
ENDCHAR
STARTCHAR uni2103
ENCODING 8451
SWIDTH 1017 0
DWIDTH 19 0
BBX 18 13 0 0
BITMAP
701F80
8860C0
88C040
88C000
718000
018000
018000
018000
018000
00C000
00C040
0060C0
001F00
ENDCHAR
STARTCHAR uni2109
ENCODING 8457
SWIDTH 913 0
DWIDTH 17 0
BBX 16 13 0 0
BITMAP
71FF
88C3
88C1
88C0
70C0
00C2
00FE
00C2
00C0
00C0
00C0
00C0
01E0
ENDCHAR
STARTCHAR trademark
ENCODING 8482
SWIDTH 1100 0
DWIDTH 20 0
BBX 20 8 0 5
BITMAP
FFF0F0
9970E0
185960
185960
184E60
184E60
184460
3CE4F0
ENDCHAR
STARTCHAR uni212A
ENCODING 8490
SWIDTH 658 0
DWIDTH 12 0
BBX 11 13 1 0
BITMAP
F1E0
6080
6100
6200
6400
6800
7C00
6E00
6600
6300
6380
61C0
F0E0
ENDCHAR
STARTCHAR uni212B
ENCODING 8491
SWIDTH 627 0
DWIDTH 12 0
BBX 12 14 0 0
BITMAP
0600
0900
0900
0600
0600
0B00
0B00
1180
1180
3FC0
20C0
4060
4060
E0F0
ENDCHAR
STARTCHAR uni2132
ENCODING 8498
SWIDTH 580 0
DWIDTH 11 0
BBX 9 13 1 0
BITMAP
0780
0300
0300
0300
0300
4300
7F00
4300
0300
0300
8300
C300
FF80
ENDCHAR
STARTCHAR universal
ENCODING 8704
SWIDTH 635 0
DWIDTH 12 0
BBX 12 13 0 0
BITMAP
E0F0
4060
4060
20C0
20C0
3FC0
1180
1180
0B00
0B00
0B00
0600
0600
ENDCHAR
STARTCHAR existential
ENCODING 8707
SWIDTH 606 0
DWIDTH 11 0
BBX 10 13 1 0
BITMAP
7FC0
6180
4180
0180
0180
2180
3F80
2180
0180
0180
8180
C180
FFC0
ENDCHAR
STARTCHAR uni2204
ENCODING 8708
SWIDTH 606 0
DWIDTH 11 0
BBX 10 13 1 0
BITMAP
7FC0
6180
4180
0380
0380
2580
3F80
2580
0980
0980
9180
D180
FFC0
ENDCHAR
STARTCHAR minus
ENCODING 8722
SWIDTH 570 0
DWIDTH 11 0
BBX 9 1 1 4
BITMAP
FF80
ENDCHAR
STARTCHAR fraction
ENCODING 8725
SWIDTH 150 0
DWIDTH 3 0
BBX 9 13 -3 0
BITMAP
0080
0100
0100
0200
0400
0400
0800
1000
1000
2000
4000
4000
8000
ENDCHAR
STARTCHAR periodcentered
ENCODING 8729
SWIDTH 265 0
DWIDTH 5 0
BBX 2 2 1 4
BITMAP
C0
C0
ENDCHAR
STARTCHAR uni2236
ENCODING 8758
SWIDTH 265 0
DWIDTH 5 0
BBX 2 9 1 0
BITMAP
C0
C0
00
00
00
00
00
C0
C0
ENDCHAR
STARTCHAR uni2259
ENCODING 8793
SWIDTH 570 0
DWIDTH 11 0
BBX 9 8 1 2
BITMAP
0C00
1A00
0000
FF80
0000
0000
0000
FF80
ENDCHAR
STARTCHAR uni225A
ENCODING 8794
SWIDTH 570 0
DWIDTH 11 0
BBX 9 8 1 2
BITMAP
1A00
0C00
0000
FF80
0000
0000
0000
FF80
ENDCHAR
STARTCHAR notequal
ENCODING 8800
SWIDTH 570 0
DWIDTH 11 0
BBX 9 13 1 -2
BITMAP
0200
0200
0200
0400
FF80
0800
0800
0800
FF80
1000
2000
2000
2000
ENDCHAR
STARTCHAR equivalence
ENCODING 8801
SWIDTH 570 0
DWIDTH 11 0
BBX 9 5 0 2
BITMAP
FF80
0000
FF80
0000
FF80
ENDCHAR
STARTCHAR uni2262
ENCODING 8802
SWIDTH 570 0
DWIDTH 11 0
BBX 9 13 0 -2
BITMAP
0200
0200
0200
0400
FF80
0800
FF80
0800
FF80
1000
2000
2000
2000
ENDCHAR
STARTCHAR lessequal
ENCODING 8804
SWIDTH 570 0
DWIDTH 11 0
BBX 9 11 1 -2
BITMAP
0080
0380
0E00
3800
E000
3800
0E00
0380
0080
0000
FF80
ENDCHAR
STARTCHAR greaterequal
ENCODING 8805
SWIDTH 570 0
DWIDTH 11 0
BBX 9 11 1 -2
BITMAP
8000
E000
3800
0E00
0380
0E00
3800
E000
8000
0000
FF80
ENDCHAR
STARTCHAR uni226E
ENCODING 8814
SWIDTH 570 0
DWIDTH 11 0
BBX 9 13 1 -2
BITMAP
0200
0200
0280
0780
0E00
3800
E800
3800
1E00
1380
2080
2000
2000
ENDCHAR
STARTCHAR uni226F
ENCODING 8815
SWIDTH 570 0
DWIDTH 11 0
BBX 9 13 1 -2
BITMAP
0200
0200
8200
E400
3C00
0E00
0B80
0E00
3800
F000
A000
2000
2000
ENDCHAR
STARTCHAR uni2270
ENCODING 8816
SWIDTH 570 0
DWIDTH 11 0
BBX 9 13 1 -3
BITMAP
0200
0280
0380
0E00
3C00
E800
3800
0E00
1380
1080
2000
FF80
2000
ENDCHAR
STARTCHAR uni2271
ENCODING 8817
SWIDTH 570 0
DWIDTH 11 0
BBX 9 13 1 -3
BITMAP
0200
8200
E200
3C00
0E00
0B80
0E00
3800
F000
9000
2000
FF80
2000
ENDCHAR
STARTCHAR fi
ENCODING -1
SWIDTH 610 0
DWIDTH 11 0
BBX 10 14 0 0
BITMAP
1F00
2180
6180
6000
6000
FF80
6180
6180
6180
6180
6180
6180
6180
F3C0
ENDCHAR
STARTCHAR fl
ENCODING -1
SWIDTH 610 0
DWIDTH 11 0
BBX 10 14 0 0
BITMAP
1E80
2380
6180
6180
6180
F980
6180
6180
6180
6180
6180
6180
6180
F3C0
ENDCHAR
ENDFONT
